<svg width="72" height="105" viewBox="0 0 72 105" fill="none" xmlns="http://www.w3.org/2000/svg">
<path d="M2.089 31.164C2.45967 21.2487 5.703 13.6037 11.819 8.229C17.935 2.85433 26.2287 0.166995 36.7 0.166995C43.65 0.166995 49.5807 1.37166 54.492 3.781C59.496 6.19033 63.249 9.47999 65.751 13.65C68.3457 17.82 69.643 22.4997 69.643 27.689C69.643 33.805 68.114 38.809 65.056 42.701C61.998 46.5003 58.4303 49.095 54.353 50.485V51.041C59.635 52.8017 63.805 55.7207 66.863 59.798C69.921 63.8753 71.45 69.111 71.45 75.505C71.45 81.2503 70.1063 86.347 67.419 90.795C64.8243 95.1503 60.9787 98.579 55.882 101.081C50.878 103.583 44.901 104.834 37.951 104.834C26.831 104.834 17.935 102.1 11.263 96.633C4.68367 91.1657 1.20867 82.9183 0.838 71.891H23.912C24.0047 75.9683 25.163 79.2117 27.387 81.621C29.611 83.9377 32.8543 85.096 37.117 85.096C40.731 85.096 43.511 84.0767 45.457 82.038C47.4957 79.9067 48.515 77.1267 48.515 73.698C48.515 69.25 47.0787 66.053 44.206 64.107C41.426 62.0683 36.9317 61.049 30.723 61.049H26.275V41.728H30.723C35.449 41.728 39.2483 40.9403 42.121 39.365C45.0863 37.697 46.569 34.778 46.569 30.608C46.569 27.272 45.6423 24.6773 43.789 22.824C41.9357 20.9707 39.3873 20.044 36.144 20.044C32.6227 20.044 29.9817 21.1097 28.221 23.241C26.553 25.3723 25.58 28.0133 25.302 31.164H2.089Z" fill="url(#paint0_linear_4_8281)" fill-opacity="0.41"/>
<defs>
<linearGradient id="paint0_linear_4_8281" x1="4.62264" y1="53" x2="66.3516" y2="54.2857" gradientUnits="userSpaceOnUse">
<stop stop-color="white"/>
<stop offset="1" stop-color="white" stop-opacity="0"/>
</linearGradient>
</defs>
</svg>
