<svg width="56" height="56" viewBox="0 0 56 56" fill="none" xmlns="http://www.w3.org/2000/svg">
<g clip-path="url(#clip0_748_2)">
<path d="M29.3847 26.6166C28.957 26.189 28.2647 26.189 27.837 26.6166C27.4104 27.0432 27.4104 27.7355 27.837 28.1632C28.2647 28.5898 28.957 28.5898 29.3847 28.1632C29.8112 27.7355 29.8112 27.0432 29.3847 26.6166Z" fill="#273B98"/>
<path d="M43.3051 12.6956C41.1679 10.5585 37.7082 10.5584 35.5709 12.6956C33.4393 14.8272 33.4392 18.2966 35.5712 20.4299C37.7036 22.561 41.1729 22.5619 43.3051 20.4297C45.4421 18.2928 45.4425 14.8329 43.3051 12.6956ZM41.7583 18.8828C40.4794 20.1619 38.3976 20.1619 37.118 18.8831C35.8388 17.6032 35.8387 15.5213 37.1178 14.2424C38.4 12.9602 40.4759 12.96 41.7583 14.2424C43.0405 15.5245 43.0407 17.6005 41.7583 18.8828Z" fill="#273B98"/>
<path d="M55.6794 0.320369C55.4646 0.105667 55.1715 -0.010708 54.8668 0.000776343C54.6195 0.0096357 48.7313 0.246323 41.7318 2.72027C36.1231 4.70061 31.4481 7.53593 27.8367 11.1475C27.0274 11.9568 26.2399 12.8149 25.4864 13.7064C21.9155 11.6045 19.0541 12.2635 17.2451 13.2316C13.08 15.4607 10.502 21.513 10.502 25.8421C10.5023 26.2844 10.7688 26.6833 11.1775 26.8525C11.3127 26.9086 11.4549 26.9358 11.5958 26.9358C11.8805 26.9358 12.1602 26.8246 12.3694 26.6155C14.566 24.4189 17.2753 24.5563 18.1604 24.6727L18.5434 25.0557C17.7896 26.8494 17.1823 28.6331 16.737 30.3679C16.5762 30.9957 16.6304 31.6601 16.8694 32.2678C15.8164 32.7531 14.8004 33.4656 13.9158 34.3503C11.1003 37.1658 10.5286 44.0273 10.5057 44.318C10.4805 44.6371 10.5962 44.9512 10.8225 45.1775C11.0285 45.3833 11.3071 45.4978 11.5958 45.4978C11.6245 45.4978 11.6532 45.4967 11.682 45.4945C11.9727 45.4716 18.8345 44.8999 21.6499 42.0845C22.5342 41.2002 23.2466 40.1843 23.7319 39.1315C24.3753 39.3844 25.0374 39.4156 25.6329 39.263C27.3669 38.8178 29.1504 38.2107 30.9443 37.4568L31.3274 37.8399C31.4436 38.725 31.581 41.4343 29.3845 43.6307C29.0718 43.9435 28.9782 44.4139 29.1475 44.8226C29.3167 45.2313 29.7155 45.4977 30.1579 45.4977C34.487 45.4977 40.5392 42.9197 42.7683 38.7546C43.7364 36.9458 44.3955 34.0844 42.2935 30.5134C43.1846 29.7602 44.0428 28.9727 44.8524 28.1631C48.464 24.5516 51.2992 19.8766 53.2795 14.2683C55.7536 7.26851 55.9902 1.38021 55.999 1.13302C56.01 0.829509 55.8941 0.535182 55.6794 0.320369ZM12.9474 23.4896C13.6268 20.2014 15.6002 16.5933 18.2777 15.1602C20.067 14.2028 22.0227 14.2966 24.1022 15.4349C22.3306 17.7648 20.7905 20.2749 19.5068 22.9256C19.4905 22.9156 19.2936 22.668 18.9279 22.5856C18.7775 22.5516 15.8835 21.9291 12.9474 23.4896ZM20.1031 40.5376C18.5992 42.0415 15.0713 42.8347 12.8415 43.1585C13.1654 40.9286 13.9587 37.4008 15.4625 35.897C16.3047 35.0548 17.2812 34.4163 18.2628 34.0567L21.9434 37.7374C21.5838 38.7189 20.9454 39.6954 20.1031 40.5376ZM25.0895 37.144C24.773 37.2251 24.4063 37.1061 24.1338 36.8339C22.7188 35.419 22.1652 34.8654 21.9916 34.6918C21.6731 34.3733 20.892 33.5923 19.1668 31.867C18.8941 31.5937 18.7751 31.2272 18.8559 30.9112C19.2062 29.5468 19.6644 28.1471 20.2215 26.7338L29.2663 35.7786C27.8528 36.3358 26.4533 36.7939 25.0895 37.144ZM40.8399 37.7224C39.4069 40.3998 35.7988 42.3733 32.5108 43.0527C33.5591 41.0799 33.7903 38.5685 33.4072 37.0457C33.3183 36.692 33.0875 36.5141 33.0746 36.4932C35.7251 35.2095 38.2351 33.6694 40.5653 31.8979C41.7035 33.9775 41.7973 35.9335 40.8399 37.7224ZM43.3059 26.6164C42.3203 27.6018 41.259 28.5539 40.1515 29.4461C37.4891 31.5899 34.5587 33.4057 31.4323 34.8512L21.1489 24.568C22.5944 21.4414 24.4103 18.511 26.5538 15.849C27.4467 14.7407 28.3987 13.6793 29.3839 12.6943C32.6241 9.45393 36.8059 6.87509 41.8166 5.01878L50.9813 14.1835C49.1253 19.1941 46.5464 23.3759 43.3059 26.6164ZM51.7683 11.8767L44.1234 4.23183C48.2885 2.93815 51.912 2.45372 53.7206 2.2796C53.5464 4.08855 53.0619 7.71203 51.7683 11.8767Z" fill="#273B98"/>
<path d="M26.2908 45.1767C25.8634 44.7496 25.1709 44.7498 24.7439 45.1769L21.6507 48.2711C21.2237 48.6983 21.2239 49.3909 21.651 49.8179C22.0783 50.2449 22.7709 50.2449 23.1979 49.8177L26.291 46.7234C26.718 46.2962 26.7179 45.6037 26.2908 45.1767Z" fill="#273B98"/>
<path d="M10.8233 29.7091C10.3963 29.2819 9.70385 29.2819 9.27652 29.7089L6.18231 32.802C5.75509 33.229 5.75498 33.9216 6.18198 34.3488C6.60887 34.7758 7.30133 34.7762 7.72876 34.349L10.823 31.2559C11.2502 30.8289 11.2503 30.1363 10.8233 29.7091Z" fill="#273B98"/>
<path d="M18.557 46.7246C18.1301 46.2975 17.4375 46.2975 17.0102 46.7245L9.60119 54.1325C9.17397 54.5596 9.17397 55.2522 9.60108 55.6793C10.028 56.1064 10.7206 56.1066 11.1479 55.6794L18.5569 48.2714C18.9841 47.8443 18.9841 47.1518 18.557 46.7246Z" fill="#273B98"/>
<path d="M9.80702 46.7246C9.38002 46.2975 8.68735 46.2975 8.26024 46.7245L0.851189 54.1325C0.423971 54.5596 0.423971 55.2522 0.851079 55.6793C1.27797 56.1064 1.97064 56.1066 2.39786 55.6794L9.80691 48.2714C10.2341 47.8443 10.2341 47.1518 9.80702 46.7246Z" fill="#273B98"/>
<path d="M9.27505 37.4433C8.84805 37.0163 8.15538 37.0163 7.72827 37.4434L0.320318 44.8524C-0.106791 45.2797 -0.106791 45.9721 0.320427 46.3993C0.747536 46.8264 1.4401 46.8264 1.86721 46.3992L9.27516 38.9902C9.70227 38.563 9.70227 37.8705 9.27505 37.4433Z" fill="#273B98"/>
<path d="M34.0246 21.9756C33.5974 21.5485 32.9051 21.5485 32.4777 21.9756L30.9312 23.5222C30.5041 23.9493 30.5041 24.6418 30.9312 25.0691C31.3584 25.4962 32.0508 25.4962 32.4781 25.0691L34.0246 23.5225C34.4517 23.0954 34.4517 22.4028 34.0246 21.9756Z" fill="#273B98"/>
</g>
<defs>
<clipPath id="clip0_748_2">
<rect width="56" height="56" fill="white"/>
</clipPath>
</defs>
</svg>
