<svg width="90" height="60" viewBox="0 0 90 60" fill="none" xmlns="http://www.w3.org/2000/svg">
<path d="M89.66 0H0V59.7H89.66V0Z" fill="#FFB7D5"/>
<path d="M33.9196 39.1108C33.8316 39.1108 33.7876 39.1108 33.6996 39.0668L18.1257 30.092C17.9937 30.004 17.9058 29.872 17.9058 29.6961C17.9058 29.5201 17.9937 29.3881 18.1257 29.3001L33.6996 20.3253C33.9196 20.1933 34.1836 20.2813 34.3156 20.5013C34.4475 20.7213 34.3596 20.9852 34.1396 21.1172L19.2256 29.7401L34.1396 38.3629C34.3596 38.4949 34.4035 38.7589 34.3156 38.9788C34.2276 39.0228 34.0956 39.1108 33.9196 39.1108Z" fill="#3F4D79"/>
<path d="M53.145 39.2868C53.013 39.2868 52.837 39.1988 52.749 39.0668C52.617 38.8469 52.705 38.5829 52.925 38.4509L67.839 29.8281L52.925 21.2052C52.705 21.0732 52.661 20.8093 52.749 20.5893C52.881 20.3693 53.145 20.3253 53.3649 20.4133L68.9389 29.3881C69.0708 29.4761 69.1588 29.6081 69.1588 29.7841C69.1588 29.9601 69.0708 30.092 68.9389 30.18L53.3649 39.1548C53.277 39.2428 53.233 39.2868 53.145 39.2868Z" fill="#3F4D79"/>
<path d="M41.7504 48.6135C41.7064 48.6135 41.7064 48.6135 41.6625 48.6135C41.4425 48.5695 41.2665 48.3495 41.3105 48.0856L47.5137 11.0865C47.5577 10.8666 47.7776 10.6906 48.0416 10.7346C48.2616 10.7786 48.4375 10.9985 48.3935 11.2625L42.1904 48.2615C42.1464 48.4815 41.9264 48.6135 41.7504 48.6135Z" fill="#3F4D79"/>
</svg>
