<svg width="59" height="41" viewBox="0 0 59 41" fill="none" xmlns="http://www.w3.org/2000/svg">
<path d="M55.3144 40.8569H3.68585C1.72109 40.8569 0.143555 39.2673 0.143555 37.3197V3.66619C0.143555 1.71858 1.72109 0.143311 3.68585 0.143311H55.3144C57.2649 0.143311 58.8567 1.71858 58.8567 3.68051V37.334C58.8567 39.2673 57.2649 40.8569 55.3144 40.8569Z" fill="white"/>
<path d="M55.3143 41H3.68571C1.64925 41 0 39.3531 0 37.3196V3.66608C0 1.64687 1.64925 0 3.68571 0H55.3143C57.3364 0 59 1.64687 59 3.68041V37.3339C59 39.3531 57.3508 41 55.3143 41ZM3.68571 0.286413C1.807 0.286413 0.286825 1.8044 0.286825 3.68041V37.3339C0.286825 39.1956 1.807 40.7279 3.68571 40.7279H55.3143C57.1787 40.7279 58.7132 39.2099 58.7132 37.3339V3.68041C58.7132 1.81872 57.193 0.286413 55.3143 0.286413H3.68571Z" fill="#3F4D79"/>
<path d="M58.8567 5.51343H0.143555V5.79984H58.8567V5.51343Z" fill="#3F4D79"/>
<path d="M5.62191 4.21025C6.25555 4.21025 6.76921 3.69732 6.76921 3.0646C6.76921 2.43187 6.25555 1.91895 5.62191 1.91895C4.98827 1.91895 4.47461 2.43187 4.47461 3.0646C4.47461 3.69732 4.98827 4.21025 5.62191 4.21025Z" fill="#FFB000"/>
<path d="M8.66195 4.21025C9.29559 4.21025 9.80925 3.69732 9.80925 3.0646C9.80925 2.43187 9.29559 1.91895 8.66195 1.91895C8.02831 1.91895 7.51465 2.43187 7.51465 3.0646C7.51465 3.69732 8.02831 4.21025 8.66195 4.21025Z" fill="#3F4D79"/>
<path d="M11.6307 4.21025C12.2643 4.21025 12.778 3.69732 12.778 3.0646C12.778 2.43187 12.2643 1.91895 11.6307 1.91895C10.9971 1.91895 10.4834 2.43187 10.4834 3.0646C10.4834 3.69732 10.9971 4.21025 11.6307 4.21025Z" fill="#3F4D79"/>
<path d="M14.9722 17.6001V10.6976C14.9722 9.79538 15.7036 9.07935 16.5927 9.07935H21.1963C22.0998 9.07935 22.8168 9.8097 22.8168 10.6976C22.8168 11.4995 23.4765 12.1583 24.2797 12.1583H33.1712C34.3185 12.1583 35.2651 13.0891 35.2651 14.2491V17.6001H14.9722Z" fill="#3F4D79"/>
<path d="M40.9587 33.7538H16.9371C15.8472 33.7538 14.958 32.8659 14.958 31.7776V15.7385C14.958 14.6501 15.8472 13.7622 16.9371 13.7622H40.9444C42.0343 13.7622 42.9235 14.6501 42.9235 15.7385V31.7919C42.9378 32.8803 42.0487 33.7538 40.9587 33.7538Z" fill="#FFB000"/>
<path d="M34.4333 22.9848H29.7294V18.2876H28.1662V22.9848H23.4766V24.5457H28.1662V29.2286H29.7294V24.5457H34.4333V22.9848Z" fill="white"/>
</svg>
