<svg width="68" height="57" viewBox="0 0 68 57" fill="none" xmlns="http://www.w3.org/2000/svg">
<path d="M13.4319 40.891H2.58998C1.16198 40.891 0 42.0528 0 43.481V54.3229C0 55.751 1.16198 56.9128 2.58998 56.9128H13.4319C14.86 56.9128 16.0218 55.7509 16.0218 54.3229V43.481C16.0218 42.0528 14.86 40.891 13.4319 40.891ZM14.0295 54.3229C14.0295 54.6468 13.7558 54.9205 13.4319 54.9205H2.58998C2.26605 54.9205 1.99232 54.6468 1.99232 54.3229V43.481C1.99232 43.157 2.26605 42.8833 2.58998 42.8833H13.4319C13.7558 42.8833 14.0295 43.157 14.0295 43.481V54.3229Z" fill="url(#paint0_radial_4_7894)"/>
<path d="M64.1259 21.9835H28.3926C26.2564 21.9835 24.5186 23.7214 24.5186 25.8575V34.1315C24.5186 36.2676 26.2564 38.0055 28.3926 38.0055H64.1259C66.2621 38.0055 67.9999 36.2676 67.9999 34.1315V25.8575C67.9999 23.7214 66.2619 21.9835 64.1259 21.9835ZM66.0076 34.1315C66.0076 35.1691 65.1636 36.0132 64.1259 36.0132H28.3926C27.3549 36.0132 26.5109 35.1691 26.5109 34.1315V25.8575C26.5109 24.82 27.3549 23.9758 28.3926 23.9758H64.1259C65.1636 23.9758 66.0076 24.8199 66.0076 25.8575V34.1315Z" fill="url(#paint1_radial_4_7894)"/>
<path d="M30.3145 11.0872C30.3145 11.6373 30.7604 12.0833 31.3105 12.0833H61.2084C61.7585 12.0833 62.2045 11.6373 62.2045 11.0872C62.2045 10.537 61.7585 10.0911 61.2084 10.0911H31.3105C30.7604 10.0911 30.3145 10.5369 30.3145 11.0872Z" fill="url(#paint2_radial_4_7894)"/>
<path d="M61.2082 28.9984H31.3105C30.7604 28.9984 30.3145 29.4443 30.3145 29.9945C30.3145 30.5447 30.7604 30.9906 31.3105 30.9906H61.2084C61.7585 30.9906 62.2045 30.5447 62.2045 29.9945C62.2045 29.4443 61.7585 28.9984 61.2082 28.9984Z" fill="url(#paint3_radial_4_7894)"/>
<path d="M62.2043 48.9018C62.2043 48.3516 61.7583 47.9057 61.2082 47.9057H31.3105C30.7604 47.9057 30.3145 48.3516 30.3145 48.9018C30.3145 49.452 30.7604 49.8979 31.3105 49.8979H61.2084C61.7585 49.8979 62.2043 49.452 62.2043 48.9018Z" fill="url(#paint4_radial_4_7894)"/>
<path d="M21.6297 19.7213C20.2078 18.5041 18.0608 18.6706 16.8438 20.0926L14.5236 22.8032C13.853 22.2789 13.0227 21.9834 12.148 21.9834H3.87401C1.73785 21.9835 0 23.7213 0 25.8575V34.1314C0 36.2676 1.73785 38.0055 3.87401 38.0055H12.1478C14.284 38.0055 16.0218 36.2676 16.0218 34.1314V31.4926L22.0009 24.5076C22.5905 23.8188 22.8767 22.9416 22.8064 22.0375C22.7363 21.1336 22.3185 20.3111 21.6297 19.7213ZM14.0296 34.1314C14.0295 35.1691 13.1855 36.0131 12.1478 36.0131H3.87401C2.83648 36.0131 1.99232 35.1691 1.99232 34.1314V25.8575C1.99232 24.82 2.83634 23.9758 3.87401 23.9758C12.8645 23.9758 12.5775 23.8605 13.2256 24.3194L11.0095 26.9084C10.3077 25.9963 10.2511 25.906 10.0158 25.6809C8.00979 23.7626 4.66358 24.9504 4.30525 27.6968C4.18798 28.596 4.42797 29.4869 4.98073 30.2054L8.17859 34.3624C8.33518 34.5659 8.51195 34.7488 8.70493 34.9089C9.33605 35.4325 10.1324 35.686 10.7816 35.686C12.6244 35.686 13.3406 34.6248 14.0295 33.82L14.0296 34.1314ZM20.4874 23.2119L11.9339 33.2047C11.3573 33.878 10.3013 33.8547 9.7576 33.1477L6.55974 28.9905C5.61545 27.7638 7.07771 26.1452 8.39428 26.9365C8.70055 27.1205 8.71197 27.1896 10.1786 29.0961C10.5623 29.5948 11.3118 29.6193 11.725 29.1365L15.3154 24.9421C15.3155 24.9419 15.3157 24.9418 15.3158 24.9415L18.3571 21.3884C18.8599 20.8012 19.7466 20.7325 20.334 21.235C20.6185 21.4785 20.7911 21.8184 20.8201 22.1917C20.8492 22.5651 20.731 22.9274 20.4874 23.2119Z" fill="url(#paint5_radial_4_7894)"/>
<path d="M3.87401 19.098H12.1478C14.284 19.098 16.0218 17.3602 16.0218 15.224V12.5853L22.0009 5.60029C23.218 4.1784 23.0516 2.03136 21.6297 0.814263C20.2077 -0.402964 18.0609 -0.236284 16.8437 1.18561L14.5234 3.89618C13.8529 3.3717 13.0224 3.07633 12.1478 3.07633H3.87401C1.73785 3.07633 0 4.81404 0 6.9502V15.224C0 17.3602 1.73785 19.098 3.87401 19.098ZM18.3571 2.48106C18.8599 1.89376 19.7466 1.82497 20.334 2.32753C20.9212 2.83036 20.99 3.71728 20.4873 4.30458L11.9339 14.2973C11.3609 14.9666 10.3045 14.9515 9.7576 14.2404L6.55987 10.0834C5.82223 9.12474 6.56891 7.73034 7.78879 7.8338C8.57371 7.90034 8.73468 8.31166 10.1788 10.1887C10.5692 10.6962 11.3204 10.702 11.7251 10.2291C12.4529 9.37881 17.6837 3.26797 18.3571 2.48106ZM1.99232 6.9502C1.99232 5.91254 2.83634 5.06851 3.87401 5.06851C12.8645 5.06851 12.5775 4.95323 13.2257 5.4121L11.0095 8.00115C10.315 7.09829 10.2393 6.97743 9.95496 6.71831C7.93037 4.87487 4.65906 6.07815 4.30525 8.78939C4.18798 9.68853 4.42797 10.5794 4.98073 11.298L8.17846 15.4549C9.50393 17.178 12.0599 17.2133 13.4474 15.5926L14.0294 14.9126V15.2239C14.0294 16.2616 13.1854 17.1056 12.1477 17.1056H3.87401C2.83648 17.1056 1.99232 16.2616 1.99232 15.2239V6.9502Z" fill="url(#paint6_radial_4_7894)"/>
<path d="M64.1259 3.07635H48.5835C48.0334 3.07635 47.5874 3.52234 47.5874 4.07245C47.5874 4.62256 48.0334 5.06854 48.5835 5.06854H64.1259C65.1636 5.06854 66.0076 5.91257 66.0076 6.95023V15.224C66.0076 16.2617 65.1636 17.1057 64.1259 17.1057H28.3926C27.3549 17.1057 26.5109 16.2617 26.5109 15.224V6.95023C26.5109 5.91257 27.3549 5.06854 28.3926 5.06854H43.9349C44.4851 5.06854 44.931 4.62256 44.931 4.07245C44.931 3.52234 44.4851 3.07635 43.9349 3.07635H28.3926C26.2564 3.07635 24.5186 4.81421 24.5186 6.95036V15.2242C24.5186 17.3603 26.2564 19.0982 28.3926 19.0982H64.1259C66.2621 19.0982 67.9999 17.3603 67.9999 15.2242V6.95023C67.9999 4.81407 66.2619 3.07635 64.1259 3.07635Z" fill="url(#paint7_radial_4_7894)"/>
<path d="M64.1259 40.891H28.3926C26.2564 40.891 24.5186 42.6288 24.5186 44.765V53.0388C24.5186 55.175 26.2564 56.913 28.3926 56.913H43.9349C44.4851 56.913 44.931 56.4671 44.931 55.9169C44.931 55.3666 44.4851 54.9208 43.9349 54.9208H28.3926C27.3549 54.9208 26.5109 54.0768 26.5109 53.039V44.7651C26.5109 43.7275 27.3549 42.8834 28.3926 42.8834H64.1259C65.1636 42.8834 66.0076 43.7275 66.0076 44.7651V53.039C66.0076 54.0766 65.1636 54.9208 64.1259 54.9208H48.5835C48.0334 54.9208 47.5874 55.3666 47.5874 55.9169C47.5874 56.4671 48.0334 56.913 48.5835 56.913H64.1259C66.2621 56.913 67.9999 55.175 67.9999 53.0388V44.765C67.9999 42.6288 66.2619 40.891 64.1259 40.891Z" fill="url(#paint8_radial_4_7894)"/>
<defs>
<radialGradient id="paint0_radial_4_7894" cx="0" cy="0" r="1" gradientUnits="userSpaceOnUse" gradientTransform="translate(4.95825 45.886) rotate(62.9976) scale(19.0675 15.7391)">
<stop stop-color="#0F6AAB"/>
<stop offset="1" stop-color="#6A1CA8"/>
</radialGradient>
<radialGradient id="paint1_radial_4_7894" cx="0" cy="0" r="1" gradientUnits="userSpaceOnUse" gradientTransform="translate(37.9747 26.9785) rotate(35.8709) scale(28.9935 28.091)">
<stop stop-color="#0F6AAB"/>
<stop offset="1" stop-color="#6A1CA8"/>
</radialGradient>
<radialGradient id="paint2_radial_4_7894" cx="0" cy="0" r="1" gradientUnits="userSpaceOnUse" gradientTransform="translate(40.1834 10.7122) rotate(6.98917) scale(17.3604 4.27834)">
<stop stop-color="#0F6AAB"/>
<stop offset="1" stop-color="#6A1CA8"/>
</radialGradient>
<radialGradient id="paint3_radial_4_7894" cx="0" cy="0" r="1" gradientUnits="userSpaceOnUse" gradientTransform="translate(40.1834 29.6195) rotate(6.98917) scale(17.3604 4.27834)">
<stop stop-color="#0F6AAB"/>
<stop offset="1" stop-color="#6A1CA8"/>
</radialGradient>
<radialGradient id="paint4_radial_4_7894" cx="0" cy="0" r="1" gradientUnits="userSpaceOnUse" gradientTransform="translate(40.1834 48.5268) rotate(6.98919) scale(17.3603 4.27834)">
<stop stop-color="#0F6AAB"/>
<stop offset="1" stop-color="#6A1CA8"/>
</radialGradient>
<radialGradient id="paint5_radial_4_7894" cx="0" cy="0" r="1" gradientUnits="userSpaceOnUse" gradientTransform="translate(7.06109 24.8611) rotate(58.6673) scale(23.7089 21.4878)">
<stop stop-color="#0F6AAB"/>
<stop offset="1" stop-color="#6A1CA8"/>
</radialGradient>
<radialGradient id="paint6_radial_4_7894" cx="0" cy="0" r="1" gradientUnits="userSpaceOnUse" gradientTransform="translate(7.06057 5.95402) rotate(58.6686) scale(23.7081 21.4865)">
<stop stop-color="#0F6AAB"/>
<stop offset="1" stop-color="#6A1CA8"/>
</radialGradient>
<radialGradient id="paint7_radial_4_7894" cx="0" cy="0" r="1" gradientUnits="userSpaceOnUse" gradientTransform="translate(37.9747 8.07134) rotate(35.8707) scale(28.9935 28.0908)">
<stop stop-color="#0F6AAB"/>
<stop offset="1" stop-color="#6A1CA8"/>
</radialGradient>
<radialGradient id="paint8_radial_4_7894" cx="0" cy="0" r="1" gradientUnits="userSpaceOnUse" gradientTransform="translate(37.9747 45.886) rotate(35.8709) scale(28.9935 28.091)">
<stop stop-color="#0F6AAB"/>
<stop offset="1" stop-color="#6A1CA8"/>
</radialGradient>
</defs>
</svg>
