<svg width="54" height="69" viewBox="0 0 54 69" fill="none" xmlns="http://www.w3.org/2000/svg">
<path d="M38.8167 38.8167C37.3131 38.8167 35.862 39.045 34.4932 39.4629C32.598 35.1314 29.4162 31.3764 25.4078 28.8214L24.9671 28.5417L25.4112 28.2608C32.0523 24.0321 36.1326 16.9423 36.4979 9.13333H37.675C39.5633 9.13333 41.1 7.59665 41.1 5.70833V3.425C41.1 1.53668 39.5633 0 37.675 0H3.425C1.53668 0 0 1.53668 0 3.425V5.70833C0 7.59665 1.53668 9.13333 3.425 9.13333H4.60206C4.96739 16.9423 9.04771 24.0287 15.6899 28.2551L16.1409 28.5417L15.6911 28.8282C9.04771 33.0547 4.96739 40.141 4.60206 47.95H3.425C1.53668 47.95 0 49.4867 0 51.375V53.6583C0 55.5466 1.53668 57.0833 3.425 57.0833H24.3894C25.9421 63.6182 31.8125 68.5 38.8167 68.5C47.0001 68.5 53.6583 61.8418 53.6583 53.6583C53.6583 45.4749 47.0001 38.8167 38.8167 38.8167ZM2.28333 5.70833V3.425C2.28333 2.7948 2.79594 2.28333 3.425 2.28333H37.675C38.3041 2.28333 38.8167 2.7948 38.8167 3.425V5.70833C38.8167 6.33853 38.3041 6.85 37.675 6.85H3.425C2.79594 6.85 2.28333 6.33853 2.28333 5.70833ZM34.2146 9.13333C34.0262 12.7867 32.9359 16.2585 31.0933 19.2885C28.9173 19.2085 26.3428 17.7769 23.6279 16.2676C18.9391 13.6612 13.192 10.4805 7.71196 14.0448C7.25643 12.4624 6.97444 10.8173 6.88653 9.13333H34.2146ZM16.9161 30.7542L18.8797 29.5041C19.2085 29.2952 19.4083 28.9321 19.4083 28.5417C19.4083 28.1512 19.2085 27.7882 18.8797 27.5781L16.9161 26.328C13.0618 23.8757 10.1631 20.3559 8.48829 16.2859C12.9636 12.9659 17.6102 15.5347 22.5182 18.2632C24.982 19.6332 27.3406 20.9302 29.6297 21.3971C28.1307 23.306 26.3063 24.9831 24.1862 26.3325L22.2225 27.577C21.8915 27.787 21.6917 28.1501 21.6917 28.5417C21.6917 28.9333 21.8915 29.2963 22.2225 29.5064L24.1839 30.7485C27.7882 33.0467 30.656 36.418 32.3742 40.3088C29.1216 41.8855 26.5221 44.6015 25.1212 47.95H6.88539C7.24844 40.9265 10.936 34.5594 16.9161 30.7542ZM3.425 54.8C2.79594 54.8 2.28333 54.2885 2.28333 53.6583V51.375C2.28333 50.7448 2.79594 50.2333 3.425 50.2333H24.3894C24.128 51.335 23.975 52.4778 23.975 53.6583C23.975 54.0442 24.0035 54.4221 24.0332 54.8H3.425ZM38.8167 66.2167C31.8925 66.2167 26.2583 60.5825 26.2583 53.6583C26.2583 46.7341 31.8925 41.1 38.8167 41.1C45.7409 41.1 51.375 46.7341 51.375 53.6583C51.375 60.5825 45.7409 66.2167 38.8167 66.2167Z" fill="url(#paint0_radial_4_7906)"/>
<path d="M45.6666 54.8H43.3833V45.6667C43.3833 45.0353 42.8718 44.525 42.2416 44.525H35.3916C34.7614 44.525 34.2499 45.0353 34.2499 45.6667V54.8H31.9666C31.5054 54.8 31.0886 55.0774 30.9117 55.5044C30.7347 55.9314 30.8329 56.4223 31.1594 56.7488L38.0094 63.5989C38.2321 63.8215 38.5243 63.9334 38.8166 63.9334C39.1089 63.9334 39.4011 63.8215 39.6237 63.5989L46.4738 56.7488C46.8003 56.4223 46.8984 55.9314 46.7215 55.5044C46.5445 55.0774 46.1278 54.8 45.6666 54.8ZM38.8166 61.1774L34.7226 57.0834H35.3916C36.0218 57.0834 36.5333 56.573 36.5333 55.9417V46.8084H41.0999V55.9417C41.0999 56.573 41.6114 57.0834 42.2416 57.0834H42.9106L38.8166 61.1774Z" fill="url(#paint1_radial_4_7906)"/>
<defs>
<radialGradient id="paint0_radial_4_7906" cx="0" cy="0" r="1" gradientUnits="userSpaceOnUse" gradientTransform="translate(16.6055 21.3556) rotate(68.2396) scale(78.2076 54.9449)">
<stop stop-color="#0F6AAB"/>
<stop offset="1" stop-color="#6A1CA8"/>
</radialGradient>
<radialGradient id="paint1_radial_4_7906" cx="0" cy="0" r="1" gradientUnits="userSpaceOnUse" gradientTransform="translate(35.7712 50.5758) rotate(67.2339) scale(22.3186 16.2498)">
<stop stop-color="#0F6AAB"/>
<stop offset="1" stop-color="#6A1CA8"/>
</radialGradient>
</defs>
</svg>
