<svg width="65" height="67" viewBox="0 0 65 67" fill="none" xmlns="http://www.w3.org/2000/svg">
<path d="M23.5543 44.2219C23.3326 43.9985 23.069 43.8211 22.7785 43.7001C22.488 43.5791 22.1764 43.5168 21.8617 43.5168C21.547 43.5168 21.2354 43.5791 20.9449 43.7001C20.6544 43.8211 20.3907 43.9985 20.1691 44.2219C19.7251 44.6686 19.4759 45.2728 19.4759 45.9026C19.4759 46.5324 19.7251 47.1366 20.1691 47.5833L22.8629 50.2771H11.9207V35.9735C11.9207 35.3413 11.6695 34.7349 11.2225 34.2878C10.7754 33.8408 10.169 33.5896 9.53676 33.5896C8.9045 33.5896 8.29814 33.8408 7.85107 34.2878C7.404 34.7349 7.15283 35.3413 7.15283 35.9735V52.661C7.15283 53.2933 7.404 53.8996 7.85107 54.3467C8.29814 54.7938 8.9045 55.045 9.53676 55.045H22.8629L20.1691 57.715C19.841 58.0496 19.6189 58.4735 19.5305 58.9338C19.442 59.394 19.4911 59.87 19.6717 60.3025C19.8523 60.7349 20.1564 61.1045 20.5459 61.3651C20.9354 61.6257 21.393 61.7657 21.8617 61.7676C22.1754 61.7694 22.4864 61.7093 22.7769 61.5907C23.0673 61.472 23.3315 61.2972 23.5543 61.0763L30.3008 54.3298C30.7412 53.8857 30.9895 53.2864 30.9921 52.661C30.9939 52.3473 30.9338 52.0363 30.8152 51.7458C30.6965 51.4554 30.5217 51.1912 30.3008 50.9684L23.5543 44.2219Z" fill="url(#paint0_radial_4_7863)"/>
<path d="M44.8905 23.2195C45.3591 23.2175 45.8168 23.0775 46.2063 22.8169C46.5958 22.5563 46.8998 22.1867 47.0804 21.7543C47.261 21.3219 47.3102 20.8458 47.2217 20.3856C47.1333 19.9254 46.9111 19.5015 46.5831 19.1668L43.8892 16.473H54.8315V30.7765C54.8315 31.4088 55.0826 32.0151 55.5297 32.4622C55.9768 32.9093 56.5832 33.1605 57.2154 33.1605C57.8477 33.1605 58.454 32.9093 58.9011 32.4622C59.3482 32.0151 59.5993 31.4088 59.5993 30.7765V14.089C59.5993 13.4568 59.3482 12.8504 58.9011 12.4033C58.454 11.9563 57.8477 11.7051 57.2154 11.7051H43.8892L46.5831 9.0351C47.0271 8.58844 47.2763 7.98423 47.2763 7.35443C47.2763 6.72463 47.0271 6.12042 46.5831 5.67376C46.3615 5.45032 46.0978 5.27297 45.8073 5.15194C45.5168 5.03091 45.2052 4.9686 44.8905 4.9686C44.5758 4.9686 44.2642 5.03091 43.9737 5.15194C43.6832 5.27297 43.4195 5.45032 43.1979 5.67376L36.4514 12.4203C36.011 12.8643 35.7627 13.4636 35.76 14.089C35.7582 14.4028 35.8184 14.7138 35.937 15.0042C36.0556 15.2947 36.2304 15.5589 36.4514 15.7816L43.1979 22.5281C43.4207 22.7491 43.6848 22.9239 43.9753 23.0425C44.2657 23.1612 44.5768 23.2213 44.8905 23.2195Z" fill="url(#paint1_radial_4_7863)"/>
<path d="M59.9807 35.7589H45.8916C44.7283 35.7589 43.6126 36.2211 42.79 37.0437C41.9674 37.8663 41.5052 38.982 41.5052 40.1454V62.2682C41.4958 62.8514 41.602 63.4306 41.818 63.9724C42.0339 64.5142 42.3551 65.0078 42.763 65.4246C43.171 65.8414 43.6575 66.1732 44.1946 66.4007C44.7316 66.6282 45.3084 66.7469 45.8916 66.75H59.9807C61.1421 66.7438 62.2542 66.2796 63.0754 65.4583C63.8967 64.6371 64.3608 63.525 64.3671 62.3636V40.2407C64.3798 39.6567 64.2757 39.0761 64.061 38.5328C63.8462 37.9896 63.5251 37.4947 63.1165 37.0772C62.708 36.6598 62.2201 36.3281 61.6816 36.1017C61.1431 35.8753 60.5648 35.7588 59.9807 35.7589ZM59.5992 61.9822H46.2731V40.5268H59.5992V61.9822Z" fill="url(#paint2_radial_4_7863)"/>
<path d="M22.8629 26.6046V4.48179C22.8756 3.89778 22.7715 3.31711 22.5568 2.77387C22.342 2.23063 22.021 1.73576 21.6124 1.31828C21.2038 0.900813 20.7159 0.569157 20.1774 0.342779C19.6389 0.116401 19.0606 -0.000137925 18.4765 1.225e-07H4.38747C3.80332 -0.000137925 3.22503 0.116401 2.68653 0.342779C2.14803 0.569157 1.66017 0.900813 1.25159 1.31828C0.842996 1.73576 0.521907 2.23063 0.307161 2.77387C0.0924151 3.31711 -0.0116622 3.89778 0.00103669 4.48179V26.6046C0.00729786 27.7661 0.471448 28.8781 1.29271 29.6994C2.11397 30.5207 3.22604 30.9848 4.38747 30.9911H18.4765C19.6379 30.9848 20.75 30.5207 21.5712 29.6994C22.3925 28.8781 22.8567 27.7661 22.8629 26.6046ZM18.0951 26.2232H4.76889V4.76786H18.0951V26.2232Z" fill="url(#paint3_radial_4_7863)"/>
<defs>
<radialGradient id="paint0_radial_4_7863" cx="0" cy="0" r="1" gradientUnits="userSpaceOnUse" gradientTransform="translate(14.5303 42.3744) rotate(66.6784) scale(32.5373 24.1364)">
<stop stop-color="#0F6AAB"/>
<stop offset="1" stop-color="#6A1CA8"/>
</radialGradient>
<radialGradient id="paint1_radial_4_7863" cx="0" cy="0" r="1" gradientUnits="userSpaceOnUse" gradientTransform="translate(43.1375 13.7577) rotate(66.6886) scale(32.5508 24.1382)">
<stop stop-color="#0F6AAB"/>
<stop offset="1" stop-color="#6A1CA8"/>
</radialGradient>
<radialGradient id="paint2_radial_4_7863" cx="0" cy="0" r="1" gradientUnits="userSpaceOnUse" gradientTransform="translate(48.5802 45.4208) rotate(69.3968) scale(35.1072 23.5957)">
<stop stop-color="#0F6AAB"/>
<stop offset="1" stop-color="#6A1CA8"/>
</radialGradient>
<radialGradient id="paint3_radial_4_7863" cx="0" cy="0" r="1" gradientUnits="userSpaceOnUse" gradientTransform="translate(7.07567 9.66181) rotate(69.3964) scale(35.1073 23.5961)">
<stop stop-color="#0F6AAB"/>
<stop offset="1" stop-color="#6A1CA8"/>
</radialGradient>
</defs>
</svg>
