<svg width="65" height="61" viewBox="0 0 65 61" fill="none" xmlns="http://www.w3.org/2000/svg">
<path d="M63.0704 0H1.92959C0.863876 0 0 0.863876 0 1.92959V58.3275C0 59.3927 0.863876 60.2566 1.92959 60.2566H63.0704C64.1361 60.2566 65 59.3927 65 58.3275V1.92959C65 0.863876 64.1361 0 63.0704 0ZM3.85868 3.85868H61.1413V11.7427H3.85868V3.85868ZM61.1413 56.3979H3.85868V15.6013H61.1413V56.3979Z" fill="url(#paint0_radial_4_7869)"/>
<path d="M21.1322 45.3822C21.5091 45.7591 22.003 45.9471 22.4964 45.9471C22.9903 45.9471 23.4843 45.7586 23.8607 45.3822C24.6145 44.6284 24.6145 43.407 23.8607 42.6532L17.207 35.9996L23.8607 29.346C24.6145 28.5927 24.6145 27.3707 23.8607 26.6175C23.1074 25.8642 21.886 25.8642 21.1322 26.6175L13.1143 34.6353C12.361 35.3886 12.361 36.6106 13.1143 37.3638L21.1322 45.3822Z" fill="url(#paint1_radial_4_7869)"/>
<path d="M42.5034 41.2891L41.1392 42.6534C40.3854 43.4071 40.3854 44.6286 41.1392 45.3823C41.5156 45.7587 42.0095 45.9472 42.5034 45.9472C42.9969 45.9472 43.4908 45.7587 43.8677 45.3823L51.8856 37.364C52.6389 36.6107 52.6389 35.3888 51.8856 34.6355L43.8677 26.6176C43.1139 25.8638 41.8925 25.8638 41.1387 26.6176C40.3854 27.3709 40.3854 28.5928 41.1387 29.3461L42.5029 30.7103L47.7928 35.9997L42.5034 41.2891Z" fill="url(#paint2_radial_4_7869)"/>
<path d="M28.3876 45.7969C28.6315 45.8991 28.885 45.9477 29.1334 45.9477C29.8872 45.9477 30.6033 45.5033 30.9132 44.7649L37.6447 28.7286C38.0568 27.7462 37.5951 26.6151 36.6122 26.203C35.6298 25.7904 34.4992 26.2526 34.0866 27.235L27.3556 43.2712C26.943 44.2536 27.4052 45.3843 28.3876 45.7969Z" fill="url(#paint3_radial_4_7869)"/>
<path d="M57.0777 5.87158C56.0685 5.87158 55.1015 6.75877 55.1481 7.80067C55.1947 8.84605 55.9961 9.73026 57.0777 9.73026C58.0869 9.73026 59.0534 8.84258 59.0068 7.80067C58.9602 6.75529 58.1593 5.87158 57.0777 5.87158Z" fill="url(#paint4_radial_4_7869)"/>
<path d="M51.0198 5.87158C50.0107 5.87158 49.0436 6.75877 49.0902 7.80067C49.1374 8.84605 49.9383 9.73026 51.0198 9.73026C52.029 9.73026 52.996 8.84258 52.9494 7.80067C52.9023 6.75529 52.1014 5.87158 51.0198 5.87158Z" fill="url(#paint5_radial_4_7869)"/>
<path d="M44.9617 5.87158C43.9525 5.87158 42.986 6.75877 43.0326 7.80067C43.0792 8.84605 43.8801 9.73026 44.9617 9.73026C45.9709 9.73026 46.9379 8.84258 46.8913 7.80067C46.8447 6.75529 46.0438 5.87158 44.9617 5.87158Z" fill="url(#paint6_radial_4_7869)"/>
<defs>
<radialGradient id="paint0_radial_4_7869" cx="0" cy="0" r="1" gradientUnits="userSpaceOnUse" gradientTransform="translate(20.1154 18.7857) rotate(61.2027) scale(72.9107 62.8024)">
<stop stop-color="#0F6AAB"/>
<stop offset="1" stop-color="#6A1CA8"/>
</radialGradient>
<radialGradient id="paint1_radial_4_7869" cx="0" cy="0" r="1" gradientUnits="userSpaceOnUse" gradientTransform="translate(16.2248 32.2548) rotate(73.0798) scale(22.05 12.5277)">
<stop stop-color="#0F6AAB"/>
<stop offset="1" stop-color="#6A1CA8"/>
</radialGradient>
<radialGradient id="paint2_radial_4_7869" cx="0" cy="0" r="1" gradientUnits="userSpaceOnUse" gradientTransform="translate(44.2492 32.2547) rotate(73.0799) scale(22.0504 12.5278)">
<stop stop-color="#0F6AAB"/>
<stop offset="1" stop-color="#6A1CA8"/>
</radialGradient>
<radialGradient id="paint3_radial_4_7869" cx="0" cy="0" r="1" gradientUnits="userSpaceOnUse" gradientTransform="translate(30.4821 32.2547) rotate(74.8232) scale(21.859 11.2696)">
<stop stop-color="#0F6AAB"/>
<stop offset="1" stop-color="#6A1CA8"/>
</radialGradient>
<radialGradient id="paint4_radial_4_7869" cx="0" cy="0" r="1" gradientUnits="userSpaceOnUse" gradientTransform="translate(56.3416 7.07457) rotate(62.9781) scale(4.593 3.79311)">
<stop stop-color="#0F6AAB"/>
<stop offset="1" stop-color="#6A1CA8"/>
</radialGradient>
<radialGradient id="paint5_radial_4_7869" cx="0" cy="0" r="1" gradientUnits="userSpaceOnUse" gradientTransform="translate(50.2839 7.07457) rotate(62.9751) scale(4.59312 3.79349)">
<stop stop-color="#0F6AAB"/>
<stop offset="1" stop-color="#6A1CA8"/>
</radialGradient>
<radialGradient id="paint6_radial_4_7869" cx="0" cy="0" r="1" gradientUnits="userSpaceOnUse" gradientTransform="translate(44.2261 7.07457) rotate(62.9781) scale(4.593 3.79311)">
<stop stop-color="#0F6AAB"/>
<stop offset="1" stop-color="#6A1CA8"/>
</radialGradient>
</defs>
</svg>
