<svg width="70" height="70" viewBox="0 0 70 70" fill="none" xmlns="http://www.w3.org/2000/svg">
<path d="M27.9878 14.0243V15.1905C27.9878 17.1225 29.5542 18.6889 31.4863 18.6889H38.4832C40.4153 18.6889 41.9817 17.1225 41.9817 15.1905V14.0243C41.9762 12.2047 40.9132 10.5544 39.2588 9.79707C41.4109 7.4781 41.3209 3.86592 39.0562 1.65682C36.7915 -0.552274 33.1782 -0.552274 30.9135 1.65682C28.6488 3.86592 28.5589 7.4781 30.711 9.79707C29.0562 10.5544 27.9933 12.2047 27.9878 14.0243ZM34.9847 2.3628C36.9168 2.3628 38.4832 3.92919 38.4832 5.86128C38.4832 7.79337 36.917 9.35976 34.9847 9.35976C33.0525 9.35976 31.4863 7.79337 31.4863 5.86128C31.4863 3.92919 33.0525 2.3628 34.9847 2.3628ZM30.32 14.0243C30.32 12.7362 31.3642 11.692 32.6524 11.692H37.317C38.6051 11.692 39.6493 12.7362 39.6493 14.0243V15.1905C39.6493 15.8345 39.1272 16.3566 38.4832 16.3566H31.4863C30.8422 16.3566 30.3202 15.8344 30.3202 15.1905V14.0243H30.32Z" fill="url(#paint0_radial_4_7909)"/>
<path d="M27.9878 65.3354V66.5015C27.9878 68.4336 29.5542 70 31.4863 70H38.4832C40.4153 70 41.9817 68.4336 41.9817 66.5015V65.3354C41.9762 63.5158 40.9132 61.8655 39.2588 61.1081C41.4109 58.7891 41.3209 55.177 39.0562 52.9679C36.7915 50.7588 33.1782 50.7588 30.9135 52.9679C28.6488 55.177 28.5589 58.7891 30.711 61.1081C29.0562 61.8655 27.9933 63.5158 27.9878 65.3354ZM34.9847 53.6737C36.9168 53.6737 38.4832 55.2401 38.4832 57.1722C38.4832 59.1043 36.917 60.6707 34.9847 60.6707C33.0525 60.6707 31.4863 59.1043 31.4863 57.1722C31.4863 55.2401 33.0525 53.6737 34.9847 53.6737ZM30.32 65.3354C30.32 64.0472 31.3642 63.003 32.6524 63.003H37.317C38.6051 63.003 39.6493 64.0472 39.6493 65.3354V66.5015C39.6493 67.1456 39.1272 67.6676 38.4832 67.6676H31.4863C30.8422 67.6676 30.3202 67.1456 30.3202 66.5015V65.3354H30.32Z" fill="url(#paint1_radial_4_7909)"/>
<path d="M3.49848 43.1782H10.4954C12.4275 43.1782 13.9939 41.6119 13.9939 39.6798V38.5137C13.9884 36.694 12.9254 35.0437 11.271 34.2864C13.0376 32.369 13.3143 29.5111 11.9484 27.2905C10.5825 25.0699 7.9071 24.0278 5.399 24.7395C2.89103 25.4514 1.16174 27.7435 1.16611 30.3506C1.17021 31.8119 1.72628 33.2177 2.72294 34.2864C1.0684 35.0437 0.00546637 36.694 0 38.5137V39.6798C0 40.6077 0.36857 41.4975 1.02467 42.1536C1.68077 42.8097 2.57056 43.1782 3.49848 43.1782ZM6.99695 26.8521C8.92904 26.8521 10.4954 28.4185 10.4954 30.3506C10.4954 32.2827 8.92904 33.8491 6.99695 33.8491C5.06486 33.8491 3.49848 32.2827 3.49848 30.3506C3.49848 28.4185 5.06473 26.8521 6.99695 26.8521ZM2.33223 38.5137C2.33223 37.2255 3.37644 36.1813 4.66459 36.1813H9.32918C10.6173 36.1813 11.6615 37.2255 11.6615 38.5137V39.6798C11.6615 40.3238 11.1394 40.8459 10.4954 40.8459H3.49848C2.8544 40.8459 2.33236 40.3238 2.33236 39.6798V38.5137H2.33223Z" fill="url(#paint2_radial_4_7909)"/>
<path d="M67.2463 34.2863C69.3984 31.9674 69.3085 28.3552 67.0438 26.1461C64.779 23.937 61.1658 23.937 58.901 26.1461C56.6363 28.3552 56.5464 31.9674 58.6985 34.2863C57.044 35.0437 55.9811 36.694 55.9756 38.5136V39.6797C55.9756 41.6118 57.542 43.1782 59.4741 43.1782H66.471C68.4031 43.1782 69.9695 41.6118 69.9695 39.6797V38.5136C69.9639 36.694 68.9008 35.0437 67.2463 34.2863ZM62.9724 26.8521C64.9045 26.8521 66.4709 28.4184 66.4709 30.3505C66.4709 32.2826 64.9045 33.849 62.9724 33.849C61.0403 33.849 59.4739 32.2826 59.4739 30.3505C59.4739 28.4184 61.0402 26.8521 62.9724 26.8521ZM67.637 39.6797C67.637 40.3238 67.115 40.8458 66.4709 40.8458H59.4739C58.8299 40.8458 58.3078 40.3238 58.3078 39.6797V38.5136C58.3078 37.2255 59.352 36.1812 60.6402 36.1812H65.3048C66.5929 36.1812 67.6371 37.2255 67.6371 38.5136L67.637 39.6797Z" fill="url(#paint3_radial_4_7909)"/>
<path d="M20.9907 35.0151C20.9907 42.7438 27.256 49.0091 34.9846 49.0091C42.7133 49.0091 48.9785 42.7438 48.9785 35.0151C48.9785 27.2865 42.7133 21.0212 34.9846 21.0212C27.2594 21.0296 20.9991 27.2899 20.9907 35.0151ZM34.9846 23.3536C35.8325 23.3536 36.9438 25.0853 37.6831 28.0182H32.2862C33.0255 25.0853 34.1368 23.3536 34.9846 23.3536ZM38.1472 30.3506C38.3191 31.5097 38.4239 32.6779 38.4608 33.849H31.5082C31.5452 32.6779 31.6499 31.5097 31.8218 30.3506H38.1472ZM46.5867 33.849H40.7944C40.7571 32.6787 40.6594 31.5109 40.5017 30.3506H45.6655C46.1546 31.4609 46.4655 32.6416 46.5867 33.849ZM34.9846 46.6767C34.1368 46.6767 33.0255 44.9449 32.2862 42.0121H37.6831C36.9438 44.9449 35.8323 46.6767 34.9846 46.6767ZM31.8219 39.6797C31.65 38.5206 31.5452 37.3524 31.5083 36.1813H38.461C38.4239 37.3524 38.3193 38.5206 38.1473 39.6797H31.8219ZM23.3824 36.1813H29.1747C29.212 37.3516 29.3097 38.5194 29.4674 39.6797H24.3036C23.8145 38.5694 23.5036 37.3886 23.3824 36.1813ZM40.7944 36.1813H46.5867C46.4655 37.3886 46.1546 38.5692 45.6655 39.6797H40.5017C40.6593 38.5195 40.757 37.3517 40.7944 36.1813ZM29.1747 33.849H23.3824C23.5036 32.6416 23.8145 31.461 24.3036 30.3506H29.4674C29.3099 31.5109 29.2121 32.6785 29.1747 33.849ZM25.6762 42.0121H29.8814C30.1745 43.4159 30.6446 44.7768 31.2808 46.0621C29.0473 45.308 27.0941 43.8962 25.6773 42.0121H25.6762ZM38.6906 46.0621C39.3255 44.7767 39.7945 43.4157 40.0864 42.0121H44.2915C42.8757 43.8957 40.9238 45.3074 38.6916 46.0621H38.6906ZM44.2917 28.0182H40.0865C39.7934 26.6143 39.3231 25.2534 38.6871 23.9682C40.921 24.7221 42.8746 26.1339 44.2917 28.0182ZM31.2773 23.9682C30.6428 25.2537 30.1742 26.6146 29.8826 28.0182H25.6775C27.0932 26.1346 29.0451 24.7229 31.2773 23.9682Z" fill="url(#paint4_radial_4_7909)"/>
<path d="M12.8277 64.1691H24.4892C25.1333 64.1691 25.6554 63.6469 25.6554 63.003C25.6554 62.3591 25.1332 61.8369 24.4892 61.8369H12.8277C10.2515 61.8369 8.16311 59.7485 8.16311 57.1723V50.6582L9.67101 52.1661C10.1285 52.608 10.856 52.6017 11.3057 52.1518C11.7555 51.702 11.7619 50.9747 11.3199 50.5171L7.82146 47.0187C7.36612 46.5634 6.62788 46.5634 6.17253 47.0187L2.67406 50.5171C2.2321 50.9747 2.23839 51.7021 2.68827 52.1518C3.13815 52.6016 3.86545 52.608 4.32299 52.1661L5.83088 50.6582V57.1723C5.83457 61.035 8.96503 64.1653 12.8277 64.1691Z" fill="url(#paint5_radial_4_7909)"/>
<path d="M57.1416 5.86133H45.4801C44.836 5.86133 44.314 6.3835 44.314 7.02744C44.314 7.67138 44.836 8.19355 45.4801 8.19355H57.1416C59.7178 8.19355 61.8062 10.282 61.8062 12.8581V17.0401L60.2983 15.5322C59.8408 15.0902 59.1133 15.0965 58.6636 15.5464C58.2138 15.9963 58.2074 16.7236 58.6494 17.1811L62.1479 20.6796C62.6032 21.1348 63.3414 21.1348 63.7968 20.6796L67.2953 17.1811C67.7372 16.7236 67.7309 15.9961 67.2811 15.5464C66.8312 15.0965 66.1039 15.0902 65.6463 15.5322L64.1384 17.0401V12.8583C64.1347 8.99547 61.0043 5.86515 57.1416 5.86133Z" fill="url(#paint6_radial_4_7909)"/>
<path d="M5.83057 12.8582V19.8552C5.83057 20.4993 6.35274 21.0213 6.99668 21.0213C7.64062 21.0213 8.16279 20.4993 8.16279 19.8552V12.8582C8.16279 10.2821 10.2512 8.19364 12.8274 8.19364H21.6739L20.1661 9.7014C19.863 9.99413 19.7414 10.4277 19.8481 10.8355C19.9548 11.2433 20.2733 11.5616 20.6809 11.6683C21.0887 11.7751 21.5222 11.6534 21.8151 11.3503L25.3135 7.85186C25.7687 7.39651 25.7687 6.65828 25.3135 6.20293L21.8151 2.70445C21.3575 2.2625 20.6301 2.26878 20.1803 2.71866C19.7305 3.16855 19.7242 3.89585 20.1661 4.35338L21.674 5.86128H12.8275C8.96485 5.86511 5.83439 8.99542 5.83057 12.8582Z" fill="url(#paint7_radial_4_7909)"/>
<path d="M50.9693 58.6799C50.5139 58.2247 49.7757 58.2247 49.3204 58.6799L45.8219 62.1784C45.3667 62.6338 45.3667 63.372 45.8219 63.8274L49.3204 67.3258C49.7779 67.7678 50.5053 67.7615 50.9551 67.3116C51.405 66.8617 51.4112 66.1344 50.9693 65.6769L49.4614 64.169H57.1418C61.0044 64.1652 64.1349 61.0347 64.1387 57.172V47.8429C64.1387 47.1988 63.6166 46.6768 62.9726 46.6768C62.3287 46.6768 61.8065 47.1989 61.8065 47.8429V57.1722C61.8065 59.7483 59.7181 61.8368 57.1419 61.8368H49.4615L50.9694 60.3289C51.4245 59.8735 51.4245 59.1353 50.9693 58.6799Z" fill="url(#paint8_radial_4_7909)"/>
<defs>
<radialGradient id="paint0_radial_4_7909" cx="0" cy="0" r="1" gradientUnits="userSpaceOnUse" gradientTransform="translate(32.3185 5.82648) rotate(69.115) scale(21.2106 14.4152)">
<stop stop-color="#0F6AAB"/>
<stop offset="1" stop-color="#6A1CA8"/>
</radialGradient>
<radialGradient id="paint1_radial_4_7909" cx="0" cy="0" r="1" gradientUnits="userSpaceOnUse" gradientTransform="translate(32.3185 57.1375) rotate(69.115) scale(21.2106 14.4152)">
<stop stop-color="#0F6AAB"/>
<stop offset="1" stop-color="#6A1CA8"/>
</radialGradient>
<radialGradient id="paint2_radial_4_7909" cx="0" cy="0" r="1" gradientUnits="userSpaceOnUse" gradientTransform="translate(4.33067 30.3354) rotate(69.0859) scale(21.1824 14.4124)">
<stop stop-color="#0F6AAB"/>
<stop offset="1" stop-color="#6A1CA8"/>
</radialGradient>
<radialGradient id="paint3_radial_4_7909" cx="0" cy="0" r="1" gradientUnits="userSpaceOnUse" gradientTransform="translate(60.3063 30.3157) rotate(69.115) scale(21.2106 14.4152)">
<stop stop-color="#0F6AAB"/>
<stop offset="1" stop-color="#6A1CA8"/>
</radialGradient>
<radialGradient id="paint4_radial_4_7909" cx="0" cy="0" r="1" gradientUnits="userSpaceOnUse" gradientTransform="translate(29.6521 29.7467) rotate(62.9976) scale(33.3082 27.4939)">
<stop stop-color="#0F6AAB"/>
<stop offset="1" stop-color="#6A1CA8"/>
</radialGradient>
<radialGradient id="paint5_radial_4_7909" cx="0" cy="0" r="1" gradientUnits="userSpaceOnUse" gradientTransform="translate(9.55997 52.1305) rotate(55.8221) scale(22.4196 21.2605)">
<stop stop-color="#0F6AAB"/>
<stop offset="1" stop-color="#6A1CA8"/>
</radialGradient>
<radialGradient id="paint6_radial_4_7909" cx="0" cy="0" r="1" gradientUnits="userSpaceOnUse" gradientTransform="translate(51.5273 10.5875) rotate(51.9212) scale(20.421 20.2292)">
<stop stop-color="#0F6AAB"/>
<stop offset="1" stop-color="#6A1CA8"/>
</radialGradient>
<radialGradient id="paint7_radial_4_7909" cx="0" cy="0" r="1" gradientUnits="userSpaceOnUse" gradientTransform="translate(11.9656 8.18962) rotate(61.5497) scale(22.4851 19.2175)">
<stop stop-color="#0F6AAB"/>
<stop offset="1" stop-color="#6A1CA8"/>
</radialGradient>
<radialGradient id="paint8_radial_4_7909" cx="0" cy="0" r="1" gradientUnits="userSpaceOnUse" gradientTransform="translate(51.2546 53.2164) rotate(65.617) scale(24.4208 18.7367)">
<stop stop-color="#0F6AAB"/>
<stop offset="1" stop-color="#6A1CA8"/>
</radialGradient>
</defs>
</svg>
