<svg width="77" height="73" viewBox="0 0 77 73" fill="none" xmlns="http://www.w3.org/2000/svg">
<path d="M37.2005 26.803C37.7022 27.2794 38.5364 27.1831 38.9176 26.608L46.4248 15.2782C46.7691 14.7588 46.6269 14.0586 46.1076 13.7143C45.5889 13.3707 44.8886 13.5128 44.5444 14.0316L37.7791 24.2417L34.02 20.6722C33.5682 20.2434 32.8544 20.2622 32.425 20.714C31.9961 21.1657 32.0149 21.8795 32.4667 22.3083C32.4661 22.3083 37.1964 26.7995 37.2005 26.803Z" fill="url(#paint0_radial_4_7882)"/>
<path d="M37.9698 44.0069C38.1854 44.1056 38.424 44.1579 38.6613 44.1579H38.6707C38.9121 44.1567 39.1542 44.1015 39.3704 43.9981C56.5219 35.8412 59.4287 18.2419 59.9104 13.0423C60.0209 11.855 59.3523 10.7494 58.2473 10.2912C54.833 8.87364 52.5119 5.70368 52.19 2.01852C52.0907 0.884133 51.1214 0 49.9794 0H49.9658L26.8586 0.135704C25.6936 0.142166 24.7472 1.02747 24.6579 2.19476C24.3736 5.8811 22.0866 9.07396 18.6893 10.5273C17.5954 10.995 16.9433 12.1064 17.0679 13.2931C17.6107 18.4869 20.7237 36.0515 37.9698 44.0069ZM19.5764 12.6011C23.7421 10.8199 26.5484 6.90916 26.905 2.39098L49.9459 2.25586C50.3553 6.76406 53.2016 10.639 57.3826 12.3743C57.5694 12.4525 57.6828 12.6369 57.6646 12.8343C57.2122 17.7073 54.5058 34.1381 38.6572 41.838C22.7175 34.3255 19.8207 17.9265 19.3108 13.0587C19.2903 12.8619 19.3972 12.6781 19.5764 12.6011Z" fill="url(#paint1_radial_4_7882)"/>
<path d="M22.3927 18.8541C22.529 19.3558 23.1652 19.8152 23.7773 19.6466C24.3777 19.4809 24.7331 18.8635 24.5698 18.2625C24.2826 17.2039 24.0411 16.1306 23.8514 15.0673C26.9156 13.0705 29.1896 10.0903 30.3052 6.60958L46.5944 6.51382C47.7506 9.98045 50.0593 12.9348 53.147 14.8952C52.9702 15.9614 52.7411 17.0382 52.4655 18.101C52.3093 18.7043 52.6717 19.3199 53.2745 19.4762C53.8784 19.6325 54.4935 19.27 54.6497 18.6667C54.9728 17.4189 55.236 16.1523 55.431 14.9022C55.5403 14.2037 55.2207 13.517 54.618 13.1527C51.7418 11.4156 49.6157 8.69038 48.6317 5.4793C48.4103 4.75731 47.7294 4.25562 46.9739 4.25562H46.9634L29.9093 4.35548C29.1491 4.36018 28.4688 4.87186 28.2556 5.59914C27.3098 8.82138 25.2155 11.5713 22.3598 13.3425C21.7612 13.7132 21.4504 14.4035 21.5673 15.1014C21.7776 16.3485 22.0549 17.611 22.3927 18.8541Z" fill="url(#paint2_radial_4_7882)"/>
<path d="M52.37 22.1985C51.7943 21.96 51.1351 22.2349 50.8972 22.8107C48.2906 29.1282 44.1643 33.9313 38.6292 37.0925C33.0512 33.9924 28.865 29.2299 26.185 22.9323C25.9406 22.3595 25.2779 22.0928 24.7051 22.3366C24.1318 22.5804 23.8651 23.243 24.1089 23.8158C27.0339 30.688 31.6419 35.8688 37.805 39.2132C38.0647 39.3548 38.349 39.4247 38.6327 39.4247C38.9235 39.4247 39.2137 39.3513 39.4781 39.2038C45.5948 35.7913 50.1382 30.5652 52.9827 23.6707C53.2206 23.095 52.9463 22.4359 52.37 22.1985Z" fill="url(#paint3_radial_4_7882)"/>
<path d="M7.23673 57.7158C5.03668 57.7158 3.24609 59.5058 3.24609 61.7065C3.24609 63.9071 5.03668 65.6971 7.23673 65.6971C9.43737 65.6971 11.228 63.9071 11.228 61.7065C11.228 59.5058 9.43796 57.7158 7.23673 57.7158ZM7.23673 63.4412C6.28034 63.4412 5.50195 62.6634 5.50195 61.7065C5.50195 60.7501 6.28034 59.9717 7.23673 59.9717C8.19371 59.9717 8.9721 60.7501 8.9721 61.7065C8.9721 62.6634 8.19371 63.4412 7.23673 63.4412Z" fill="url(#paint4_radial_4_7882)"/>
<path d="M76.1911 46.6735C74.7453 44.5492 71.8344 43.9864 69.7025 45.4186L54.9572 55.2874L51.8096 55.1106L51.7291 54.3046C51.4154 51.1482 49.0027 48.6333 45.8621 48.1891C45.8421 48.1862 45.8227 48.1838 45.8028 48.1821L29.9142 46.7898C29.3767 46.7058 27.656 46.2117 22.9281 43.5C20.4708 42.0907 17.702 41.2952 14.8893 41.1872V38.2363C14.8893 36.7553 13.685 35.551 12.204 35.551H2.6853C1.20489 35.551 0 36.7559 0 38.2363V67.2987C0 68.7791 1.20489 69.984 2.6853 69.984H12.204C13.6844 69.984 14.8893 68.7791 14.8893 67.2987V66.498L28.7781 71.7576C28.8086 71.7693 29.9366 72.1911 32.0103 71.9955C32.0162 71.9949 55.0876 68.6687 55.0876 68.6687C55.0935 68.6681 55.0988 68.6669 55.1047 68.6658C57.0762 68.3515 58.9355 67.5179 60.4823 66.2566C60.4964 66.2448 60.5099 66.2331 60.5234 66.2213L75.428 52.816C77.1845 51.2563 77.5129 48.6156 76.1911 46.6735ZM73.9246 51.1341L59.036 64.5253C57.8035 65.5246 56.3242 66.1855 54.7569 66.4369L31.6966 69.7614C31.6913 69.762 31.6837 69.7631 31.6766 69.7643C31.6731 69.7649 31.669 69.7655 31.6655 69.7661C30.9758 69.8748 30.2573 69.8289 29.5294 69.6298L14.8893 64.0859V51.2046C14.8893 50.5813 14.384 50.0766 13.7613 50.0766C13.138 50.0766 12.6334 50.5813 12.6334 51.2046V67.2987C12.6334 67.5355 12.4407 67.7282 12.204 67.7282H2.6853C2.44855 67.7282 2.25586 67.5355 2.25586 67.2987V38.2363C2.25586 37.9996 2.44855 37.8069 2.6853 37.8069H12.204C12.4407 37.8069 12.6334 37.9996 12.6334 38.2363V46.1095C12.6334 46.7328 13.1386 47.2374 13.7613 47.2374C14.3846 47.2374 14.8893 46.7322 14.8893 46.1095V43.4454C17.309 43.5523 19.6894 44.2431 21.8055 45.4574C27.508 48.7278 29.1006 48.9534 29.624 49.0274C29.644 49.0304 29.6634 49.0321 29.6834 49.0345L45.5737 50.4268C47.6686 50.7364 49.2747 52.4189 49.4844 54.5279L49.5443 55.1288L28.2705 56.4424C28.2558 56.4412 28.2411 56.4401 28.2282 56.4389C27.5385 56.3766 26.9158 56.0506 26.4735 55.5207C26.0746 55.0419 25.3631 54.9773 24.885 55.3767C24.4062 55.7756 24.3416 56.487 24.741 56.9652C25.5688 57.9581 26.7366 58.552 28.0273 58.6859C28.724 58.7588 50.785 57.3124 50.785 57.3124L55.2075 57.5609C55.4519 57.575 55.6945 57.5081 55.8977 57.3718L70.9591 47.2921C72.0653 46.5489 73.5757 46.8403 74.3259 47.9424C75.0115 48.9505 74.8411 50.3204 73.9246 51.1341Z" fill="url(#paint5_radial_4_7882)"/>
<defs>
<radialGradient id="paint0_radial_4_7882" cx="0" cy="0" r="1" gradientUnits="userSpaceOnUse" gradientTransform="translate(36.6017 17.7607) rotate(61.4544) scale(16.393 14.041)">
<stop stop-color="#0F6AAB"/>
<stop offset="1" stop-color="#6A1CA8"/>
</radialGradient>
<radialGradient id="paint1_radial_4_7882" cx="0" cy="0" r="1" gradientUnits="userSpaceOnUse" gradientTransform="translate(30.3195 13.7667) rotate(63.6779) scale(52.2398 42.3648)">
<stop stop-color="#0F6AAB"/>
<stop offset="1" stop-color="#6A1CA8"/>
</radialGradient>
<radialGradient id="paint2_radial_4_7882" cx="0" cy="0" r="1" gradientUnits="userSpaceOnUse" gradientTransform="translate(32.0368 9.06499) rotate(41.7573) scale(24.5618 24.8985)">
<stop stop-color="#0F6AAB"/>
<stop offset="1" stop-color="#6A1CA8"/>
</radialGradient>
<radialGradient id="paint3_radial_4_7882" cx="0" cy="0" r="1" gradientUnits="userSpaceOnUse" gradientTransform="translate(33.0086 27.5098) rotate(49.4671) scale(24.1531 24.3429)">
<stop stop-color="#0F6AAB"/>
<stop offset="1" stop-color="#6A1CA8"/>
</radialGradient>
<radialGradient id="paint4_radial_4_7882" cx="0" cy="0" r="1" gradientUnits="userSpaceOnUse" gradientTransform="translate(5.71623 60.2041) rotate(62.9959) scale(9.49864 7.84088)">
<stop stop-color="#0F6AAB"/>
<stop offset="1" stop-color="#6A1CA8"/>
</radialGradient>
<radialGradient id="paint5_radial_4_7882" cx="0" cy="0" r="1" gradientUnits="userSpaceOnUse" gradientTransform="translate(23.8291 46.9291) rotate(42.9269) scale(56.8215 57.8195)">
<stop stop-color="#0F6AAB"/>
<stop offset="1" stop-color="#6A1CA8"/>
</radialGradient>
</defs>
</svg>
