<svg width="89" height="89" viewBox="0 0 89 89" fill="none" xmlns="http://www.w3.org/2000/svg">
<path d="M68.5583 59.5875C66.7847 59.5875 65.0508 60.1134 63.5761 61.0988C62.1014 62.0842 60.952 63.4848 60.2732 65.1234C59.5945 66.7621 59.4169 68.5652 59.7629 70.3048C60.1089 72.0443 60.963 73.6422 62.2172 74.8964C63.4713 76.1506 65.0692 77.0047 66.8088 77.3507C68.5484 77.6967 70.3515 77.5191 71.9901 76.8404C73.6288 76.1616 75.0293 75.0122 76.0147 73.5375C77.0001 72.0627 77.5261 70.3289 77.5261 68.5552C77.5233 66.1777 76.5776 63.8983 74.8964 62.2172C73.2152 60.536 70.9359 59.5903 68.5583 59.5875ZM68.5583 74.898C67.3039 74.898 66.0775 74.526 65.0345 73.829C63.9914 73.1321 63.1785 72.1415 62.6984 70.9825C62.2183 69.8235 62.0927 68.5482 62.3375 67.3178C62.5822 66.0875 63.1863 64.9573 64.0733 64.0702C64.9604 63.1832 66.0905 62.5791 67.3209 62.3344C68.5513 62.0896 69.8266 62.2152 70.9856 62.6953C72.1446 63.1754 73.1352 63.9883 73.8321 65.0314C74.5291 66.0745 74.9011 67.3008 74.9011 68.5552C74.8999 70.2374 74.2313 71.8503 73.0422 73.04C71.853 74.2297 70.2404 74.899 68.5583 74.901V74.898Z" fill="url(#paint0_radial_4_7889)"/>
<path d="M86.8125 63.9052H83.4997C83.219 62.999 82.856 62.1203 82.4152 61.2802L84.756 58.9387C85.0019 58.6925 85.1401 58.3587 85.1401 58.0106C85.1401 57.6626 85.0019 57.3287 84.756 57.0825L80.031 52.3575C79.9091 52.2355 79.7644 52.1387 79.6052 52.0727C79.4459 52.0067 79.2752 51.9727 79.1028 51.9727C78.9304 51.9727 78.7597 52.0067 78.6005 52.0727C78.4412 52.1387 78.2965 52.2355 78.1747 52.3575L75.8332 54.6982C74.9931 54.2572 74.1145 53.8939 73.2082 53.613V50.304C73.2083 50.1316 73.1744 49.9609 73.1085 49.8016C73.0426 49.6423 72.9459 49.4976 72.824 49.3757C72.7021 49.2538 72.5574 49.1571 72.3981 49.0912C72.2388 49.0253 72.0681 48.9914 71.8957 48.9915H65.2177C65.0453 48.9914 64.8746 49.0253 64.7153 49.0912C64.556 49.1571 64.4113 49.2538 64.2894 49.3757C64.1675 49.4976 64.0708 49.6423 64.0049 49.8016C63.939 49.9609 63.9051 50.1316 63.9052 50.304V53.6167C62.9991 53.8977 62.1204 54.2607 61.2802 54.7012L58.9387 52.3612C58.8169 52.2393 58.6722 52.1425 58.5129 52.0765C58.3537 52.0104 58.183 51.9765 58.0106 51.9765C57.8382 51.9765 57.6675 52.0104 57.5082 52.0765C57.349 52.1425 57.2043 52.2393 57.0825 52.3612L52.3575 57.0862C52.1115 57.3325 51.9733 57.6663 51.9733 58.0144C51.9733 58.3624 52.1115 58.6962 52.3575 58.9425L54.6982 61.284C54.2577 62.1242 53.8947 63.0029 53.6137 63.909H50.304C50.1316 63.9089 49.9608 63.9428 49.8016 64.0087C49.6423 64.0746 49.4976 64.1713 49.3757 64.2932C49.2538 64.4151 49.1571 64.5598 49.0912 64.7191C49.0252 64.8784 48.9914 65.0491 48.9915 65.2215V71.9025C48.9914 72.0749 49.0252 72.2456 49.0912 72.4049C49.1571 72.5642 49.2538 72.7089 49.3757 72.8308C49.4976 72.9527 49.6423 73.0494 49.8016 73.1153C49.9608 73.1812 50.1316 73.2151 50.304 73.215H53.6167C53.8976 74.1213 54.2609 74.9999 54.702 75.84L52.3605 78.1815C52.1145 78.4277 51.9763 78.7616 51.9763 79.1096C51.9763 79.4577 52.1145 79.7915 52.3605 80.0377L57.0855 84.7627C57.2073 84.8847 57.352 84.9815 57.5112 85.0475C57.6705 85.1135 57.8412 85.1475 58.0136 85.1475C58.186 85.1475 58.3567 85.1135 58.5159 85.0475C58.6752 84.9815 58.8199 84.8847 58.9417 84.7627L61.284 82.4212C62.124 82.8622 63.0026 83.2252 63.909 83.5057V86.8125C63.9089 86.9849 63.9427 87.1556 64.0087 87.3149C64.0746 87.4742 64.1713 87.6189 64.2932 87.7408C64.4151 87.8627 64.5598 87.9594 64.7191 88.0253C64.8783 88.0912 65.0491 88.1251 65.2215 88.125H71.9025C72.0748 88.1251 72.2456 88.0912 72.4048 88.0253C72.5641 87.9594 72.7089 87.8627 72.8307 87.7408C72.9526 87.6189 73.0493 87.4742 73.1152 87.3149C73.1812 87.1556 73.2151 86.9849 73.215 86.8125V83.4997C74.1212 83.2191 74.9999 82.856 75.84 82.4152L78.1815 84.7567C78.3033 84.8787 78.448 84.9755 78.6072 85.0415C78.7665 85.1075 78.9372 85.1415 79.1096 85.1415C79.282 85.1415 79.4527 85.1075 79.6119 85.0415C79.7712 84.9755 79.9159 84.8787 80.0377 84.7567L84.7627 80.0317C85.0087 79.7855 85.1469 79.4517 85.1469 79.1036C85.1469 78.7555 85.0087 78.4217 84.7627 78.1755L82.4212 75.834C82.8626 74.9941 83.2258 74.1154 83.5065 73.209H86.8125C86.9848 73.2091 87.1556 73.1752 87.3148 73.1093C87.4741 73.0434 87.6189 72.9467 87.7408 72.8248C87.8626 72.7029 87.9593 72.5582 88.0252 72.3989C88.0912 72.2396 88.1251 72.0689 88.125 71.8965V65.2177C88.1251 65.0453 88.0912 64.8746 88.0252 64.7153C87.9593 64.5561 87.8626 64.4113 87.7408 64.2894C87.6189 64.1675 87.4741 64.0709 87.3148 64.0049C87.1556 63.939 86.9848 63.9051 86.8125 63.9052ZM85.5 70.5862H82.5C82.2052 70.5866 81.9191 70.6861 81.6878 70.8688C81.4566 71.0516 81.2935 71.3068 81.225 71.5935C80.9071 72.9264 80.3798 74.2005 79.6627 75.3682C79.5081 75.6197 79.4427 75.9159 79.4773 76.2091C79.5119 76.5022 79.6443 76.7752 79.8532 76.9837L81.9734 79.104L79.1055 81.972L76.9845 79.8517C76.7759 79.643 76.5032 79.5107 76.2102 79.4761C75.9172 79.4416 75.6211 79.5068 75.3697 79.6612C74.202 80.3783 72.9279 80.9056 71.595 81.2235C71.3083 81.292 71.053 81.4551 70.8703 81.6864C70.6876 81.9177 70.588 82.2037 70.5877 82.4985V85.4985H66.5302V82.4985C66.5299 82.2037 66.4303 81.9177 66.2476 81.6864C66.0649 81.4551 65.8096 81.292 65.523 81.2235C64.1902 80.9057 62.9164 80.3784 61.749 79.6612C61.4977 79.5065 61.2015 79.4411 60.9085 79.4757C60.6154 79.5103 60.3426 79.6428 60.1342 79.8517L58.0125 81.9727L55.1437 79.104L57.2625 76.9875C57.4713 76.7789 57.6038 76.506 57.6384 76.2128C57.6729 75.9197 57.6076 75.6234 57.453 75.372C56.7359 74.2042 56.2086 72.9302 55.8907 71.5972C55.8222 71.3106 55.6591 71.0553 55.4278 70.8726C55.1965 70.6899 54.9105 70.5903 54.6157 70.59H51.6157V66.5302H54.6157C54.9105 66.5299 55.1965 66.4303 55.4278 66.2476C55.6591 66.0649 55.8222 65.8097 55.8907 65.523C56.2085 64.1902 56.7358 62.9164 57.453 61.749C57.6075 61.4977 57.6728 61.2015 57.6383 60.9085C57.6037 60.6155 57.4713 60.3427 57.2625 60.1342L55.1445 58.0125L58.0125 55.1445L60.1342 57.2625C60.3425 57.4716 60.6153 57.6041 60.9084 57.6387C61.2015 57.6733 61.4977 57.6078 61.749 57.453C62.9164 56.7358 64.1902 56.2085 65.523 55.8907C65.8096 55.8222 66.0649 55.6591 66.2476 55.4278C66.4303 55.1966 66.5299 54.9105 66.5302 54.6157V51.6157H70.5862V54.6157C70.5865 54.9105 70.6861 55.1966 70.8688 55.4278C71.0515 55.6591 71.3068 55.8222 71.5935 55.8907C72.9264 56.2086 74.2005 56.7359 75.3682 57.453C75.6194 57.608 75.9156 57.6735 76.2088 57.6389C76.5019 57.6043 76.7747 57.4717 76.983 57.2625L79.104 55.1422L81.972 58.011L79.8517 60.132C79.6429 60.3404 79.5105 60.6132 79.4759 60.9063C79.4413 61.1993 79.5066 61.4954 79.6612 61.7467C80.3784 62.9141 80.9057 64.188 81.2234 65.5207C81.292 65.8074 81.4551 66.0627 81.6863 66.2454C81.9176 66.4281 82.2037 66.5276 82.4985 66.528H85.4985L85.5 70.5862Z" fill="url(#paint1_radial_4_7889)"/>
<path d="M56.1645 47.3062C56.1643 46.9582 56.0259 46.6245 55.7798 46.3785L51.627 42.2265C52.5267 40.6091 53.2367 38.8933 53.7427 37.113H59.6175C59.7899 37.1131 59.9606 37.0792 60.1199 37.0133C60.2792 36.9474 60.4239 36.8507 60.5458 36.7288C60.6677 36.6069 60.7644 36.4622 60.8303 36.3029C60.8962 36.1436 60.9301 35.9729 60.93 35.8005V25.1302C60.9301 24.9579 60.8962 24.7871 60.8303 24.6279C60.7644 24.4686 60.6677 24.3239 60.5458 24.202C60.4239 24.0801 60.2792 23.9834 60.1199 23.9175C59.9606 23.8515 59.7899 23.8177 59.6175 23.8177H53.7427C53.2367 22.0377 52.5267 20.3221 51.627 18.705L55.7798 14.5515C55.9017 14.4297 55.9985 14.2851 56.0645 14.1259C56.1305 13.9667 56.1645 13.7961 56.1645 13.6238C56.1645 13.4514 56.1305 13.2808 56.0645 13.1216C55.9985 12.9624 55.9017 12.8178 55.7798 12.696L48.234 5.15025C47.9833 4.9131 47.6513 4.78095 47.3062 4.78095C46.9612 4.78095 46.6292 4.9131 46.3785 5.15025L42.2265 9.303C40.6091 8.40329 38.8933 7.69334 37.113 7.18725V1.3125C37.1131 1.14011 37.0792 0.969396 37.0133 0.810112C36.9474 0.650827 36.8507 0.506099 36.7288 0.384203C36.6069 0.262306 36.4622 0.165632 36.3029 0.0997076C36.1436 0.0337832 35.9729 -9.83772e-05 35.8005 2.1455e-07H25.1302C24.9579 -9.83772e-05 24.7871 0.0337832 24.6279 0.0997076C24.4686 0.165632 24.3239 0.262306 24.202 0.384203C24.0801 0.506099 23.9834 0.650827 23.9175 0.810112C23.8515 0.969396 23.8177 1.14011 23.8177 1.3125V7.18725C22.0375 7.69347 20.3217 8.40342 18.7043 9.303L14.5515 5.15025C14.3054 4.90431 13.9717 4.76616 13.6238 4.76616C13.2758 4.76616 12.9421 4.90431 12.696 5.15025L5.15025 12.696C4.90431 12.9421 4.76616 13.2758 4.76616 13.6238C4.76616 13.9717 4.90431 14.3054 5.15025 14.5515L9.303 18.705C8.40329 20.3221 7.69334 22.0377 7.18725 23.8177H1.3125C1.14011 23.8177 0.969396 23.8515 0.810112 23.9175C0.650827 23.9834 0.506099 24.0801 0.384203 24.202C0.262306 24.3239 0.165632 24.4686 0.0997076 24.6279C0.0337832 24.7871 -9.83772e-05 24.9579 2.1455e-07 25.1302V35.8005C-9.83772e-05 35.9729 0.0337832 36.1436 0.0997076 36.3029C0.165632 36.4622 0.262306 36.6069 0.384203 36.7288C0.506099 36.8507 0.650827 36.9474 0.810112 37.0133C0.969396 37.0792 1.14011 37.1131 1.3125 37.113H7.18725C7.69334 38.8933 8.40329 40.6091 9.303 42.2265L5.15025 46.3785C5.02827 46.5003 4.9315 46.645 4.86548 46.8043C4.79945 46.9635 4.76547 47.1342 4.76547 47.3066C4.76547 47.479 4.79945 47.6497 4.86548 47.809C4.9315 47.9682 5.02827 48.1129 5.15025 48.2348L12.696 55.7798C12.8178 55.9017 12.9624 55.9985 13.1216 56.0645C13.2808 56.1305 13.4514 56.1645 13.6238 56.1645C13.7961 56.1645 13.9667 56.1305 14.1259 56.0645C14.2851 55.9985 14.4297 55.9017 14.5515 55.7798L18.7043 51.627C20.3217 52.5266 22.0375 53.2365 23.8177 53.7427V59.6175C23.8177 59.7899 23.8515 59.9606 23.9175 60.1199C23.9834 60.2792 24.0801 60.4239 24.202 60.5458C24.3239 60.6677 24.4686 60.7644 24.6279 60.8303C24.7871 60.8962 24.9579 60.9301 25.1302 60.93H35.8005C35.9729 60.9301 36.1436 60.8962 36.3029 60.8303C36.4622 60.7644 36.6069 60.6677 36.7288 60.5458C36.8507 60.4239 36.9474 60.2792 37.0133 60.1199C37.0792 59.9606 37.1131 59.7899 37.113 59.6175V53.7427C38.8933 53.2367 40.6091 52.5267 42.2265 51.627L46.3785 55.7798C46.5003 55.9017 46.6449 55.9985 46.8041 56.0645C46.9633 56.1305 47.1339 56.1645 47.3062 56.1645C47.4786 56.1645 47.6492 56.1305 47.8084 56.0645C47.9676 55.9985 48.1122 55.9017 48.234 55.7798L55.7798 48.2348C56.0258 47.9884 56.1642 47.6545 56.1645 47.3062ZM47.3062 52.9958L43.3657 49.0545C43.157 48.8458 42.8841 48.7136 42.591 48.679C42.298 48.6444 42.0018 48.7096 41.7503 48.864C39.816 50.0532 37.7048 50.9271 35.496 51.453C35.2093 51.5216 34.954 51.6847 34.7712 51.916C34.5884 52.1472 34.4886 52.4332 34.488 52.728V58.305H26.4427V52.7302C26.4421 52.4355 26.3424 52.1495 26.1595 51.9182C25.9767 51.687 25.7214 51.5239 25.4347 51.4553C23.2256 50.9285 21.1144 50.0533 19.1805 48.8625C18.929 48.7081 18.6328 48.6429 18.3397 48.6775C18.0466 48.7121 17.7737 48.8443 17.565 49.053L13.6238 52.9942L7.93425 47.3047L11.8755 43.3643C12.0843 43.1556 12.2166 42.8827 12.2512 42.5896C12.2858 42.2964 12.2205 42.0002 12.066 41.7487C10.8768 39.8145 10.0029 37.7033 9.477 35.4945C9.40835 35.2078 9.2453 34.9525 9.01405 34.7697C8.7828 34.5869 8.49679 34.4871 8.202 34.4865H2.625V26.4427H8.2005C8.49529 26.4421 8.7813 26.3424 9.01255 26.1595C9.2438 25.9767 9.40685 25.7214 9.4755 25.4347C10.0011 23.2258 10.875 21.1146 12.0645 19.1805C12.219 18.929 12.2843 18.6328 12.2497 18.3397C12.2151 18.0466 12.0828 17.7736 11.874 17.565L7.93275 13.6238L13.6222 7.93425L17.5635 11.8755C17.7719 12.0846 18.0449 12.2172 18.3381 12.2518C18.6313 12.2864 18.9276 12.2209 19.179 12.066C21.1131 10.8765 23.2243 10.0026 25.4333 9.477C25.7199 9.40835 25.9752 9.2453 26.158 9.01405C26.3409 8.7828 26.4406 8.49679 26.4412 8.202V2.625H34.488V8.2005C34.4886 8.49529 34.5884 8.7813 34.7712 9.01255C34.954 9.2438 35.2093 9.40685 35.496 9.4755C37.7048 10.0014 39.816 10.8753 41.7503 12.0645C42.0016 12.2193 42.2979 12.2847 42.5911 12.2501C42.8843 12.2155 43.1573 12.083 43.3657 11.874L47.3062 7.93275L52.9958 13.6222L49.0545 17.565C48.8457 17.7736 48.7134 18.0466 48.6788 18.3397C48.6442 18.6328 48.7095 18.929 48.864 19.1805C50.0535 21.1146 50.9274 23.2258 51.453 25.4347C51.5216 25.7214 51.6847 25.9767 51.916 26.1595C52.1472 26.3424 52.4332 26.4421 52.728 26.4427H58.305V34.488H52.7302C52.4355 34.4886 52.1495 34.5884 51.9182 34.7712C51.687 34.954 51.5239 35.2093 51.4553 35.496C50.9282 37.7051 50.053 39.8162 48.8625 41.7503C48.708 42.0017 48.6427 42.2979 48.6773 42.5911C48.7119 42.8842 48.8442 43.1571 49.053 43.3657L52.9942 47.3062L47.3062 52.9958Z" fill="url(#paint2_radial_4_7889)"/>
<path d="M30.465 16.9268C27.7872 16.9268 25.1696 17.7208 22.9431 19.2085C20.7166 20.6963 18.9813 22.8108 17.9566 25.2848C16.9318 27.7588 16.6638 30.481 17.1862 33.1074C17.7087 35.7337 18.9982 38.1461 20.8918 40.0395C22.7853 41.933 25.1978 43.2224 27.8242 43.7447C30.4505 44.267 33.1728 43.9988 35.6467 42.9739C38.1206 41.9491 40.2351 40.2137 41.7227 37.9871C43.2103 35.7605 44.0042 33.1428 44.004 30.465C43.9999 26.8756 42.5721 23.4344 40.0339 20.8964C37.4957 18.3583 34.0544 16.9307 30.465 16.9268ZM30.465 41.3768C28.3063 41.3768 26.1962 40.7366 24.4013 39.5373C22.6065 38.3379 21.2076 36.6332 20.3816 34.6388C19.5556 32.6444 19.3396 30.4499 19.7609 28.3327C20.1822 26.2155 21.2219 24.2709 22.7485 22.7446C24.275 21.2183 26.2199 20.1791 28.3372 19.7582C30.4545 19.3373 32.649 19.5538 34.6432 20.3802C36.6374 21.2066 38.3418 22.6058 39.5408 24.4009C40.7398 26.196 41.3795 28.3063 41.379 30.465C41.3759 33.3586 40.225 36.1328 38.1789 38.1789C36.1328 40.2249 33.3586 41.3758 30.465 41.379V41.3768Z" fill="url(#paint3_radial_4_7889)"/>
<defs>
<radialGradient id="paint0_radial_4_7889" cx="0" cy="0" r="1" gradientUnits="userSpaceOnUse" gradientTransform="translate(65.141 65.1791) rotate(62.9976) scale(21.345 17.619)">
<stop stop-color="#0F6AAB"/>
<stop offset="1" stop-color="#6A1CA8"/>
</radialGradient>
<radialGradient id="paint1_radial_4_7889" cx="0" cy="0" r="1" gradientUnits="userSpaceOnUse" gradientTransform="translate(61.102 61.1918) rotate(62.9976) scale(46.5727 38.4428)">
<stop stop-color="#0F6AAB"/>
<stop offset="1" stop-color="#6A1CA8"/>
</radialGradient>
<radialGradient id="paint2_radial_4_7889" cx="0" cy="0" r="1" gradientUnits="userSpaceOnUse" gradientTransform="translate(18.8559 18.9956) rotate(62.9976) scale(72.5126 59.8547)">
<stop stop-color="#0F6AAB"/>
<stop offset="1" stop-color="#6A1CA8"/>
</radialGradient>
<radialGradient id="paint3_radial_4_7889" cx="0" cy="0" r="1" gradientUnits="userSpaceOnUse" gradientTransform="translate(25.3058 25.3686) rotate(62.9976) scale(32.2254 26.6001)">
<stop stop-color="#0F6AAB"/>
<stop offset="1" stop-color="#6A1CA8"/>
</radialGradient>
</defs>
</svg>
