<svg width="74" height="74" viewBox="0 0 74 74" fill="none" xmlns="http://www.w3.org/2000/svg">
<path d="M64.6022 18.7224C55.2042 17.1684 48.9142 10.1384 48.8402 10.0644C48.4702 9.62045 47.7302 9.62045 47.3602 10.0644C47.2862 10.1384 41.0702 17.1684 31.5982 18.7224C31.1542 18.7964 30.7842 19.2404 30.7842 19.6844V27.3804C31.4502 27.3064 32.1162 27.4544 32.7082 27.6764V20.4984C40.7002 18.9444 46.1762 14.0604 48.1002 12.1364C50.0242 14.0604 55.5742 18.9444 63.4922 20.4984V31.1544C63.4922 35.9644 61.3462 40.4044 57.4982 43.3644L50.1722 49.0624C50.2462 49.4324 50.3202 49.8764 50.3202 50.3204C50.3202 50.7644 50.2462 51.1344 50.1722 51.5784L58.6822 44.9184C62.9742 41.5884 65.4162 36.6304 65.4162 31.2284V19.6844C65.4902 19.1664 65.1202 18.7964 64.6022 18.7224Z" fill="#273B98"/>
<path d="M48.0999 39.2945C53.6499 39.2945 58.0899 34.7805 58.0899 29.3045C58.0899 23.8285 53.6499 19.3145 48.0999 19.3145C42.5499 19.3145 38.1099 23.8285 38.1099 29.3045C38.1099 34.7805 42.6239 39.2945 48.0999 39.2945ZM48.0999 21.2385C52.5399 21.2385 56.1659 24.8645 56.1659 29.3045C56.1659 33.7445 52.5399 37.3705 48.0999 37.3705C43.6599 37.3705 40.0339 33.7445 40.0339 29.3045C40.0339 24.8645 43.6599 21.2385 48.0999 21.2385Z" fill="#273B98"/>
<path d="M46.2498 32.8566C46.3978 33.0046 46.6938 33.1526 46.9158 33.1526C47.1378 33.1526 47.4338 33.0786 47.5818 32.8566L52.4658 27.9726C52.8358 27.6026 52.8358 27.0106 52.4658 26.5666C52.0958 26.1966 51.5038 26.1966 51.0598 26.5666L46.9158 30.7106L45.2138 29.0086C44.8438 28.6386 44.2518 28.6386 43.8078 29.0086C43.4378 29.3786 43.4378 29.9706 43.8078 30.4146L46.2498 32.8566Z" fill="#273B98"/>
<path d="M48.396 50.2462C48.396 48.9142 47.656 47.8042 46.62 47.2122C46.99 46.6202 47.212 45.9542 47.212 45.2142C47.212 43.2902 45.658 41.7362 43.734 41.7362H38.998H33.892C34.188 39.9602 34.854 36.7042 35.224 34.8542C35.742 32.4122 34.558 30.4142 32.042 29.4522C31.228 29.1562 30.34 29.2302 29.6 29.6002C28.86 29.9702 28.342 30.6362 28.12 31.5242L27.232 35.0762C26.27 38.7762 21.978 43.8082 21.978 43.8082C21.46 44.4002 20.72 44.8442 19.906 45.0662V44.4002C19.906 43.8822 19.462 43.4382 18.944 43.4382H9.54598C9.02798 43.4382 8.58398 43.8822 8.58398 44.4002V60.9762C8.58398 61.4942 9.02798 61.9382 9.54598 61.9382H19.018C19.536 61.9382 19.98 61.4942 19.98 60.9762V60.2362C20.868 60.2362 21.756 60.5322 22.496 61.1982C25.53 63.7142 30.192 64.3062 33.818 64.3062C36.852 64.3062 39.294 63.8622 39.442 63.8622H39.516H43.364C45.288 63.8622 46.842 62.3082 46.842 60.3842C46.842 59.5702 46.546 58.8302 46.102 58.2382C46.99 57.5722 47.582 56.5362 47.582 55.3522C47.582 54.5382 47.286 53.7982 46.842 53.2062C47.804 52.5402 48.396 51.5042 48.396 50.2462ZM17.982 59.9402H10.508V45.2882H17.982V59.9402ZM39.072 43.7342H43.808C44.622 43.7342 45.362 44.4002 45.362 45.2882C45.362 46.1762 44.696 46.8422 43.808 46.8422H39.072C38.258 46.8422 37.518 46.1762 37.518 45.2882C37.518 44.4002 38.184 43.7342 39.072 43.7342ZM36.482 62.1602C33.004 62.4562 27.084 62.3822 23.68 59.6442C22.57 58.6822 21.238 58.2382 19.906 58.2382V46.9902C21.312 46.7682 22.57 46.1022 23.458 44.9922C23.68 44.7702 28.046 39.5902 29.156 35.4462L30.044 31.8942C30.118 31.5982 30.266 31.3762 30.562 31.3022C30.784 31.1542 31.08 31.1542 31.376 31.2282C33.596 32.0422 33.596 33.4482 33.374 34.4102C32.782 37.0742 31.82 42.4762 31.82 42.5502C31.746 42.8462 31.82 43.1422 32.042 43.3642C32.264 43.5862 32.486 43.7342 32.782 43.7342H35.816C35.372 45.5102 33.818 49.3582 28.194 49.9502C27.676 50.0242 27.306 50.4682 27.306 50.9862C27.38 51.5042 27.75 51.8742 28.268 51.8742H28.342C31.154 51.5782 33.152 50.5422 34.558 49.3582C34.484 49.6542 34.41 49.9502 34.41 50.3202C34.41 51.5042 35.002 52.6142 35.964 53.2062C35.52 53.7982 35.224 54.5382 35.224 55.3522C35.224 56.5362 35.816 57.5722 36.704 58.2382C36.26 58.8302 35.964 59.5702 35.964 60.3842C35.964 60.9762 36.112 61.6422 36.482 62.1602ZM43.438 61.8642H39.442C38.628 61.8642 37.888 61.1982 37.888 60.3102C37.888 59.4222 38.554 58.7562 39.442 58.7562H43.438C44.252 58.7562 44.992 59.4222 44.992 60.3102C44.992 61.1982 44.252 61.8642 43.438 61.8642ZM44.178 56.8322H38.702C37.888 56.8322 37.148 56.1662 37.148 55.2782C37.148 54.3902 37.814 53.7242 38.702 53.7242H44.178C44.992 53.7242 45.732 54.3902 45.732 55.2782C45.732 56.1662 44.992 56.8322 44.178 56.8322ZM44.918 51.8002H37.888C37.074 51.8002 36.334 51.1342 36.334 50.2462C36.334 49.3582 37 48.6922 37.888 48.6922H44.918C45.732 48.6922 46.472 49.3582 46.472 50.2462C46.472 51.1342 45.806 51.8002 44.918 51.8002Z" fill="#273B98"/>
<path d="M14.2081 58.09C15.0961 58.09 15.8361 57.35 15.8361 56.462C15.8361 55.574 15.0961 54.834 14.2081 54.834C13.3201 54.834 12.5801 55.574 12.5801 56.462C12.5801 57.35 13.3201 58.09 14.2081 58.09Z" fill="#273B98"/>
</svg>
