<svg width="47" height="29" viewBox="0 0 47 29" fill="none" xmlns="http://www.w3.org/2000/svg">
<path d="M39.5389 6.70537C35.2025 2.39819 29.334 -0.0120365 23.2221 0.00391925C10.7436 -0.237886 -0.252044 10.7444 0.00439792 23.2288C0.00434671 23.3478 0.0277475 23.4656 0.0732628 23.5756C0.118778 23.6855 0.185515 23.7854 0.269661 23.8696C0.353806 23.9537 0.45371 24.0204 0.563661 24.066C0.673613 24.1115 0.791456 24.1349 0.910457 24.1348C3.77847 24.1325 16.337 24.1365 19.4611 24.1348C20.5251 30.3883 29.5683 30.3937 30.6316 24.1347C33.6469 24.1331 42.6568 24.1361 45.5486 24.1348C45.6676 24.1349 45.7854 24.1115 45.8954 24.0659C46.0054 24.0204 46.1053 23.9536 46.1895 23.8695C46.2736 23.7853 46.3404 23.6854 46.3859 23.5754C46.4314 23.4655 46.4549 23.3476 46.4548 23.2286C46.4647 20.152 45.8577 17.1047 44.6699 14.2667C43.482 11.4287 41.7373 8.85764 39.5389 6.70537ZM29.0405 19.1885L19.8222 10.0291C19.6025 9.81813 19.3223 9.68106 19.0208 9.63706C18.7194 9.59306 18.4117 9.64432 18.1408 9.78368C17.8699 9.92303 17.6493 10.1435 17.5099 10.4144C17.3704 10.6852 17.319 10.9928 17.3628 11.2943L19.1641 22.3223H6.27887C6.50554 17.9797 8.39027 13.8897 11.5443 10.896C14.6983 7.90233 18.881 6.23335 23.2295 6.23335C27.5781 6.23335 31.7608 7.90233 34.9148 10.896C38.0688 13.8897 39.9535 17.9797 40.1802 22.3223H30.6387C30.456 21.1333 29.8957 20.0345 29.0405 19.1885ZM22.3233 4.46671C18.0411 4.66869 13.9583 6.33552 10.7584 9.18818L8.91537 7.34498C12.6022 3.99935 17.3487 2.05763 22.3233 1.85997V4.46671ZM35.7007 9.18818C32.5007 6.33552 28.4179 4.66869 24.1358 4.46671V1.85997C29.1104 2.05763 33.8568 3.99944 37.5434 7.34519L35.7007 9.18818ZM7.6206 8.61315L9.46308 10.456C6.44623 13.6958 4.67577 17.9003 4.46637 22.3223H1.83529C2.04194 17.2032 4.09736 12.3326 7.6206 8.61315ZM28.8538 23.7954C28.206 28.0741 21.9297 28.1013 21.2471 23.8272L19.331 12.0956L27.7626 20.4744C28.1963 20.9008 28.5216 21.4247 28.7114 22.0024C28.9012 22.5802 28.9501 23.195 28.8538 23.7954ZM41.9927 22.3223C41.7833 17.9003 40.0128 13.6958 36.996 10.456L38.8384 8.61331C42.3618 12.3326 44.4173 17.2032 44.6238 22.3223H41.9927Z" fill="#273B98"/>
<path d="M24.9454 20.0801C24.1746 20.0889 23.4385 20.4012 22.8966 20.9494C22.3547 21.4975 22.0508 22.2372 22.0508 23.008C22.0508 23.7787 22.3547 24.5184 22.8966 25.0665C23.4386 25.6146 24.1747 25.927 24.9455 25.9357C25.7162 25.9269 26.4524 25.6146 26.9943 25.0665C27.5362 24.5183 27.8401 23.7786 27.8401 23.0079C27.84 22.2371 27.5361 21.4974 26.9942 20.9493C26.4523 20.4012 25.7161 20.0889 24.9454 20.0801ZM24.9454 24.1232C24.6524 24.119 24.3728 23.9996 24.1671 23.7909C23.9615 23.5822 23.8462 23.3009 23.8462 23.0079C23.8462 22.7149 23.9615 22.4336 24.1672 22.2249C24.3729 22.0162 24.6524 21.8968 24.9454 21.8926C25.2384 21.8968 25.518 22.0162 25.7237 22.2249C25.9293 22.4336 26.0446 22.7149 26.0446 23.0079C26.0446 23.301 25.9293 23.5822 25.7236 23.7909C25.5179 23.9996 25.2384 24.119 24.9454 24.1232Z" fill="#273B98"/>
</svg>
