<svg width="50" height="50" viewBox="0 0 50 50" fill="none" xmlns="http://www.w3.org/2000/svg">
<g clip-path="url(#clip0_743_461)">
<path fill-rule="evenodd" clip-rule="evenodd" d="M13.3333 6.66756H28.3331C28.7934 6.66756 29.1664 6.29442 29.1664 5.83427C29.1664 5.37412 28.7933 5.00098 28.3331 5.00098H13.3333C12.873 5.00098 12.5 5.37412 12.5 5.83427C12.5 6.29442 12.8731 6.66756 13.3333 6.66756Z" fill="#273B98"/>
<path fill-rule="evenodd" clip-rule="evenodd" d="M13.3333 11.6676H28.3331C28.7934 11.6676 29.1664 11.2944 29.1664 10.8343C29.1664 10.374 28.7933 10.001 28.3331 10.001H13.3333C12.873 10.001 12.5 10.3741 12.5 10.8343C12.5 11.2944 12.8731 11.6676 13.3333 11.6676Z" fill="#273B98"/>
<path fill-rule="evenodd" clip-rule="evenodd" d="M13.3333 16.6676H28.3331C28.7934 16.6676 29.1664 16.2944 29.1664 15.8343C29.1664 15.3741 28.7933 15.001 28.3331 15.001H13.3333C12.873 15.001 12.5 15.374 12.5 15.8343C12.5 16.2945 12.8731 16.6676 13.3333 16.6676Z" fill="#273B98"/>
<path fill-rule="evenodd" clip-rule="evenodd" d="M13.3333 21.6676H28.3331C28.7934 21.6676 29.1664 21.2944 29.1664 20.8343C29.1664 20.374 28.7933 20.001 28.3331 20.001H13.3333C12.873 20.001 12.5 20.3741 12.5 20.8343C12.5 21.2944 12.8731 21.6676 13.3333 21.6676Z" fill="#273B98"/>
<path fill-rule="evenodd" clip-rule="evenodd" d="M13.3333 26.6676H23.3332C23.7934 26.6676 24.1665 26.2945 24.1665 25.8343C24.1665 25.374 23.7933 25.001 23.3332 25.001H13.3333C12.873 25.001 12.5 25.374 12.5 25.8343C12.5 26.2945 12.8731 26.6676 13.3333 26.6676Z" fill="#273B98"/>
<path fill-rule="evenodd" clip-rule="evenodd" d="M19.9999 30.8343C19.9999 30.374 19.6268 30.001 19.1666 30.001H13.3333C12.873 30.001 12.5 30.3741 12.5 30.8343C12.5 31.2945 12.8731 31.6676 13.3333 31.6676H19.1666C19.6269 31.6676 19.9999 31.2944 19.9999 30.8343Z" fill="#273B98"/>
<path d="M39.362 31.6515L39.6662 31.3473C39.8021 31.3845 39.942 31.4047 40.0829 31.4073C40.5248 31.4074 40.9486 31.2321 41.2612 30.9198L44.0079 28.1757C44.3206 27.8631 44.4963 27.4391 44.4963 26.997C44.4963 26.5548 44.3206 26.1308 44.0079 25.8183L37.008 18.8242C36.3571 18.1736 35.3021 18.1736 34.6513 18.8242L33.333 20.145V5.00095C33.3303 2.24073 31.0933 0.00374744 28.3331 0.00101309H5.01908C3.6897 -0.00406497 2.41306 0.520441 1.47117 1.45871C0.529291 2.39698 0 3.67158 0 5.00095V22.5008C0 23.4212 0.746183 24.1674 1.66668 24.1674H8.3333V40.8339C8.34385 43.5942 10.5813 45.8279 13.3415 45.8339H19.9998V48.3338C19.9998 49.2543 20.7459 50.0005 21.6664 50.0005H33.333C34.2535 50.0005 34.9997 49.2543 34.9997 48.3338V45.8339H36.6664C39.3436 45.8305 41.5431 43.7188 41.6555 41.0439L45.6955 45.0839C46.1698 45.5638 46.8165 45.8339 47.4912 45.8339C48.5089 45.8327 49.4253 45.2176 49.8118 44.2762C50.1983 43.3348 49.9786 42.2532 49.2554 41.5372L39.362 31.6515ZM27.7497 35.2506L27.7355 35.2364L24.1664 31.6673L26.9097 28.9249H26.9156L33.9056 35.9173L31.1664 38.6673L27.7497 35.2506ZM34.4996 34.1532L28.678 28.3341L32.4996 24.5141L38.3212 30.3341L34.4996 34.1532ZM35.8329 20.0008L42.8328 27.0007L40.0828 29.7415L33.1021 22.759C33.1021 22.759 33.0962 22.7491 33.0921 22.7449L33.0979 22.7366L35.8329 20.0008ZM8.3332 22.5008H1.66668V5.00095C1.66912 4.06317 2.06521 3.16943 2.75837 2.5376C3.36744 1.97902 4.16353 1.66857 4.98998 1.6676H4.99994H5.07162C5.15492 1.6676 5.24242 1.6676 5.32914 1.6801C7.07501 1.91144 8.36846 3.41757 8.3333 5.17839L8.3332 22.5008ZM9.99988 40.8339V5.17849C10.0003 3.88446 9.52586 2.63526 8.6666 1.66769H28.3331C30.174 1.66769 31.6663 3.16006 31.6663 5.00095V21.8874C31.4349 22.2733 31.3694 22.7365 31.4847 23.1715L27.3331 27.3206C26.7611 27.1661 26.1502 27.3281 25.7298 27.7456L22.9857 30.4889C22.335 31.1398 22.335 32.1948 22.9857 32.8456L25.1439 35.0005H18.3332C17.4127 35.0005 16.6665 35.7467 16.6665 36.6672V40.6588C16.6989 42.4268 15.3947 43.9354 13.6407 44.1588C13.5384 44.1681 13.4358 44.1709 13.3331 44.1671C11.4953 44.1599 10.0072 42.6718 9.99988 40.8339ZM21.6664 48.3338V45.0006C21.6664 44.5403 22.0395 44.1673 22.4997 44.1673H32.4996C32.9599 44.1673 33.3329 44.5404 33.3329 45.0006V48.3338H21.6664ZM39.9995 40.8339C39.9995 42.6748 38.5072 44.1672 36.6663 44.1672H34.8463C34.4944 43.1719 33.5553 42.5049 32.4996 42.5005H22.4997C21.4441 42.5049 20.5049 43.1719 20.1531 44.1672H16.9998C17.8585 43.2003 18.3329 41.9521 18.3331 40.6589V36.6673H26.8105L29.9829 39.8406C30.6347 40.4889 31.6878 40.4889 32.3396 39.8406L35.0829 37.0981C35.5055 36.6828 35.6696 36.0708 35.5112 35.4998L35.8103 35.2007L39.9994 39.3882V40.8339H39.9995ZM48.0711 43.9172C47.738 44.2381 47.2098 44.2352 46.8803 43.9106L41.4228 38.454L36.992 34.0241L38.1828 32.834L48.0827 42.7198C48.2457 42.8771 48.337 43.0944 48.3353 43.3209C48.3335 43.5475 48.2389 43.7633 48.0736 43.9181L48.0711 43.9172Z" fill="#273B98"/>
</g>
<defs>
<clipPath id="clip0_743_461">
<rect width="50" height="50" fill="white"/>
</clipPath>
</defs>
</svg>
