<svg width="81" height="81" viewBox="0 0 81 81" fill="none" xmlns="http://www.w3.org/2000/svg">
<path d="M77.1319 33.0702C76.261 32.5948 75.2759 32.3686 74.2849 32.4167C73.2938 32.4647 72.3352 32.7851 71.5144 33.3425L53.385 45.4284C52.9573 44.2124 52.1636 43.1586 51.1128 42.4118C50.0621 41.665 48.806 41.2619 47.5169 41.2578H21.2619C21.0977 41.2578 20.9352 41.2902 20.7835 41.353C20.6318 41.4159 20.494 41.508 20.378 41.6242L12.5102 49.4918L10.8937 47.8753C10.7776 47.7592 10.6398 47.6671 10.4882 47.6042C10.3365 47.5414 10.1739 47.5091 10.0097 47.5091C9.84555 47.5091 9.68298 47.5414 9.53131 47.6042C9.37964 47.6671 9.24184 47.7592 9.12578 47.8753L2.87459 54.1265C2.75846 54.2426 2.66635 54.3804 2.6035 54.5321C2.54065 54.6837 2.5083 54.8463 2.5083 55.0105C2.5083 55.1747 2.54065 55.3372 2.6035 55.4889C2.66635 55.6406 2.75846 55.7784 2.87459 55.8944L4.49114 57.5109L0.374188 61.628C0.256379 61.7436 0.162657 61.8815 0.0984345 62.0337C0.0342117 62.1858 0.000760569 62.3491 1.28197e-05 62.5142C-0.00073493 62.6793 0.0312355 62.843 0.0940779 62.9957C0.15692 63.1483 0.24939 63.2871 0.366146 63.4038C0.482902 63.5206 0.621632 63.6131 0.774324 63.6759C0.927016 63.7387 1.09064 63.7707 1.25576 63.77C1.42088 63.7692 1.58421 63.7358 1.73633 63.6715C1.88844 63.6073 2.02633 63.5136 2.14202 63.3958L6.25906 59.2788L20.7442 73.764L16.6272 77.881C16.5099 77.9969 16.4167 78.1347 16.3529 78.2867C16.2891 78.4387 16.256 78.6018 16.2555 78.7666C16.255 78.9314 16.2871 79.0947 16.3499 79.2471C16.4128 79.3995 16.5051 79.5379 16.6217 79.6545C16.7382 79.771 16.8767 79.8634 17.029 79.9262C17.1814 79.9891 17.3447 80.0211 17.5096 80.0206C17.6744 80.0201 17.8375 79.987 17.9895 79.9232C18.1414 79.8594 18.2793 79.7662 18.3951 79.6489L22.5121 75.5319L24.1287 77.1485C24.2448 77.2646 24.3826 77.3567 24.5342 77.4196C24.6859 77.4824 24.8485 77.5148 25.0127 77.5148C25.1768 77.5148 25.3394 77.4824 25.4911 77.4196C25.6427 77.3567 25.7806 77.2646 25.8966 77.1485L32.1478 70.8973C32.2639 70.7812 32.356 70.6434 32.4189 70.4918C32.4817 70.3401 32.5141 70.1775 32.5141 70.0133C32.5141 69.8492 32.4817 69.6866 32.4189 69.5349C32.356 69.3832 32.2639 69.2454 32.1478 69.1294L30.5312 67.5128L34.282 63.7621H48.7671C49.0375 63.7622 49.3007 63.6743 49.5168 63.5118L77.8352 42.2743C78.513 41.7628 79.0632 41.1014 79.4428 40.3418C79.8224 39.5822 80.021 38.7451 80.0231 37.8959C80.0318 36.9034 79.7665 35.9278 79.2564 35.0764C78.7463 34.2249 78.0111 33.5308 77.1319 33.0702ZM25.0126 74.4966L5.52649 55.0104L10.0098 50.5272L29.4959 70.0133L25.0126 74.4966ZM76.3346 40.2744L48.3508 61.2616H33.7643C33.6001 61.2616 33.4375 61.294 33.2859 61.3568C33.1342 61.4197 32.9964 61.5118 32.8804 61.628L28.7633 65.7449L14.2782 51.2597L21.7796 43.7583H47.5169C48.5116 43.7583 49.4656 44.1535 50.169 44.8569C50.8724 45.5603 51.2676 46.5143 51.2676 47.509C51.2676 48.5038 50.8724 49.4578 50.169 50.1612C49.4656 50.8646 48.5116 51.2597 47.5169 51.2597H31.2638C30.9322 51.2597 30.6142 51.3915 30.3798 51.6259C30.1453 51.8604 30.0136 52.1784 30.0136 52.51C30.0136 52.8416 30.1453 53.1596 30.3798 53.394C30.6142 53.6285 30.9322 53.7602 31.2638 53.7602H47.5169C49.046 53.7554 50.5201 53.1891 51.6591 52.1689C52.7982 51.1488 53.5229 49.7458 53.6956 48.2265L72.9014 35.423C73.349 35.1245 73.8692 34.9532 74.4066 34.9272C74.944 34.9012 75.4783 35.0215 75.9527 35.2753C76.427 35.5292 76.8236 35.907 77.1001 36.3685C77.3765 36.83 77.5226 37.3579 77.5226 37.8959C77.5214 38.3572 77.4136 38.8119 77.2075 39.2245C77.0014 39.6371 76.7027 39.9964 76.3346 40.2744Z" fill="url(#paint0_radial_4_7847)"/>
<path d="M26.4387 38.7574C26.6522 38.757 26.8622 38.7019 27.0484 38.5974C27.2347 38.4929 27.3911 38.3424 27.5028 38.1604C27.6144 37.9783 27.6776 37.7706 27.6862 37.5572C27.6948 37.3438 27.6487 37.1317 27.5521 36.9412C25.8697 33.6311 24.9992 29.9681 25.0126 26.255C25.0126 19.9549 27.5153 13.9128 31.9701 9.45801C36.425 5.00318 42.467 2.50047 48.7671 2.50047C55.0672 2.50047 61.1093 5.00318 65.5641 9.45801C70.0189 13.9128 72.5216 19.9549 72.5216 26.255C72.5243 27.0335 72.4852 27.8115 72.4044 28.5858C72.387 28.749 72.4019 28.914 72.4483 29.0715C72.4947 29.2289 72.5717 29.3757 72.6748 29.5034C72.7779 29.6311 72.9052 29.7373 73.0493 29.8158C73.1934 29.8944 73.3516 29.9437 73.5149 29.9611C73.6781 29.9785 73.8431 29.9636 74.0006 29.9172C74.158 29.8708 74.3048 29.7939 74.4325 29.6908C74.5602 29.5877 74.6664 29.4604 74.7449 29.3163C74.8235 29.1721 74.8728 29.0139 74.8902 28.8507C74.9808 27.9885 75.0248 27.122 75.0221 26.255C75.0221 19.2917 72.256 12.6137 67.3322 7.68991C62.4084 2.76614 55.7304 0 48.7671 0C41.8039 0 35.1258 2.76614 30.202 7.68991C25.2783 12.6137 22.5121 19.2917 22.5121 26.255C22.4976 30.3616 23.461 34.4126 25.3227 38.073C25.4271 38.2793 25.5867 38.4524 25.7837 38.5733C25.9808 38.6941 26.2075 38.7578 26.4387 38.7574Z" fill="url(#paint1_radial_4_7847)"/>
<path d="M67.8993 32.2583C68.2215 32.3367 68.5618 32.284 68.8452 32.1117C69.1286 31.9395 69.332 31.6617 69.4108 31.3396C70.1298 28.4193 70.2209 25.3798 69.6781 22.4218C69.1354 19.4637 67.9711 16.6545 66.2623 14.1797C64.5535 11.7049 62.339 9.62093 59.7651 8.06537C57.1912 6.50981 54.3166 5.51812 51.3311 5.1558C48.3456 4.79349 45.3171 5.0688 42.4459 5.96356C39.5747 6.85831 36.926 8.35214 34.6748 10.3463C32.4236 12.3406 30.6212 14.7897 29.3867 17.5321C28.1522 20.2745 27.5136 23.2476 27.5132 26.255C27.5079 30.5168 28.785 34.6816 31.1784 38.2079C31.3643 38.4825 31.6517 38.672 31.9772 38.7348C32.3028 38.7975 32.64 38.7283 32.9146 38.5425C33.1892 38.3566 33.3787 38.0693 33.4415 37.7437C33.5042 37.4181 33.435 37.0809 33.2492 36.8063C31.5988 34.3788 30.5412 31.5979 30.1614 28.6873C29.7816 25.7766 30.0901 22.8175 31.0621 20.0478C32.0342 17.2781 33.6427 14.7751 35.7582 12.7403C37.8737 10.7054 40.4373 9.19541 43.2426 8.33171C46.048 7.46801 49.017 7.27471 51.9106 7.76737C54.8043 8.26003 57.542 9.4249 59.9035 11.1683C62.2651 12.9117 64.1845 15.1849 65.5075 17.8052C66.8304 20.4255 67.52 23.3197 67.5208 26.255C67.5204 27.7686 67.3393 29.2768 66.9811 30.7474C66.9026 31.0695 66.9552 31.4096 67.1274 31.693C67.2996 31.9763 67.5772 32.1796 67.8993 32.2583Z" fill="url(#paint2_radial_4_7847)"/>
<path d="M48.7671 13.7526C48.9313 13.7526 49.0939 13.7203 49.2456 13.6575C49.3973 13.5947 49.5351 13.5026 49.6512 13.3865C49.7673 13.2704 49.8594 13.1326 49.9222 12.9809C49.9851 12.8292 50.0174 12.6666 50.0173 12.5024V11.2521C50.0173 10.9205 49.8856 10.6025 49.6511 10.3681C49.4167 10.1336 49.0987 10.0019 48.7671 10.0019C48.4355 10.0019 48.1175 10.1336 47.883 10.3681C47.6486 10.6025 47.5168 10.9205 47.5168 11.2521V12.5024C47.5168 12.6666 47.5491 12.8292 47.6119 12.9809C47.6747 13.1326 47.7668 13.2704 47.8829 13.3865C47.999 13.5026 48.1369 13.5947 48.2886 13.6575C48.4403 13.7203 48.6029 13.7526 48.7671 13.7526Z" fill="url(#paint3_radial_4_7847)"/>
<path d="M40.6406 12.1801C40.4983 12.2621 40.3737 12.3713 40.2736 12.5015C40.1736 12.6317 40.1003 12.7803 40.0578 12.9389C40.0152 13.0975 40.0044 13.2629 40.0258 13.4257C40.0473 13.5884 40.1006 13.7454 40.1827 13.8875L40.8079 14.9699C40.9737 15.2569 41.2468 15.4664 41.5671 15.5521C41.8873 15.6379 42.2285 15.5929 42.5156 15.4272C42.8027 15.2615 43.0123 14.9885 43.0982 14.6683C43.1841 14.3481 43.1394 14.0069 42.9738 13.7197L42.3487 12.6373C42.2666 12.495 42.1573 12.3704 42.0271 12.2704C41.8968 12.1704 41.7481 12.097 41.5894 12.0546C41.4308 12.0121 41.2653 12.0013 41.1025 12.0229C40.9397 12.0444 40.7827 12.0978 40.6406 12.1801Z" fill="url(#paint4_radial_4_7847)"/>
<path d="M37.482 18.2957L36.3991 17.6706C36.2568 17.5884 36.0998 17.535 35.937 17.5136C35.7741 17.4921 35.6086 17.5029 35.4499 17.5454C35.2913 17.5879 35.1425 17.6612 35.0122 17.7612C34.8819 17.8612 34.7725 17.9859 34.6904 18.1281C34.6083 18.2704 34.555 18.4274 34.5336 18.5903C34.5122 18.7532 34.5231 18.9187 34.5657 19.0773C34.6082 19.236 34.6817 19.3847 34.7817 19.5149C34.8818 19.6452 35.0065 19.7545 35.1488 19.8365L36.2318 20.4617C36.374 20.5438 36.531 20.5972 36.6939 20.6187C36.8567 20.6402 37.0222 20.6294 37.1809 20.5869C37.3396 20.5444 37.4883 20.4711 37.6186 20.3711C37.749 20.2711 37.8583 20.1464 37.9404 20.0041C38.0225 19.8619 38.0758 19.7048 38.0972 19.5419C38.1186 19.3791 38.1077 19.2136 38.0652 19.0549C38.0226 18.8963 37.9492 18.7476 37.8491 18.6173C37.7491 18.487 37.6243 18.3778 37.482 18.2957Z" fill="url(#paint5_radial_4_7847)"/>
<path d="M36.2649 26.255C36.2649 26.0908 36.2326 25.9282 36.1698 25.7765C36.107 25.6248 36.0149 25.487 35.8988 25.3709C35.7827 25.2547 35.6448 25.1627 35.4931 25.0998C35.3414 25.037 35.1788 25.0047 35.0146 25.0048H33.7644C33.4328 25.0048 33.1148 25.1365 32.8803 25.3709C32.6459 25.6054 32.5142 25.9234 32.5142 26.255C32.5142 26.5866 32.6459 26.9046 32.8803 27.1391C33.1148 27.3735 33.4328 27.5052 33.7644 27.5052H35.0146C35.1788 27.5053 35.3414 27.473 35.4931 27.4102C35.6448 27.3473 35.7827 27.2552 35.8988 27.1391C36.0149 27.023 36.107 26.8852 36.1698 26.7335C36.2326 26.5818 36.2649 26.4192 36.2649 26.255Z" fill="url(#paint6_radial_4_7847)"/>
<path d="M35.7751 35.0067C35.9941 35.0068 36.2094 34.9491 36.399 34.8394L37.4819 34.2143C37.6242 34.1322 37.749 34.023 37.849 33.8927C37.9491 33.7624 38.0225 33.6137 38.0651 33.4551C38.1076 33.2964 38.1185 33.1309 38.0971 32.968C38.0757 32.8052 38.0224 32.6481 37.9403 32.5059C37.8582 32.3636 37.7489 32.2389 37.6185 32.1389C37.4882 32.0389 37.3395 31.9656 37.1808 31.9231C37.0221 31.8806 36.8566 31.8698 36.6938 31.8913C36.5309 31.9128 36.3739 31.9662 36.2317 32.0483L35.1487 32.6735C34.9102 32.8111 34.7237 33.0236 34.6183 33.278C34.513 33.5325 34.4945 33.8146 34.5659 34.0806C34.6374 34.3466 34.7946 34.5815 35.0132 34.749C35.2319 34.9165 35.4997 35.007 35.7751 35.0067Z" fill="url(#paint7_radial_4_7847)"/>
<path d="M55.1856 39.8727C55.2954 40.063 55.4535 40.2209 55.6438 40.3307C55.8342 40.4404 56.0501 40.4981 56.2698 40.4978C56.4891 40.4975 56.7044 40.4395 56.8943 40.3296C57.0841 40.2198 57.2417 40.0619 57.3512 39.872C57.4608 39.682 57.5185 39.4666 57.5186 39.2473C57.5186 39.028 57.461 38.8125 57.3515 38.6225L56.7264 37.5401C56.5605 37.2531 56.2874 37.0437 55.9672 36.9579C55.6469 36.8721 55.3058 36.9171 55.0186 37.0828C54.7315 37.2486 54.522 37.5215 54.436 37.8417C54.3501 38.1619 54.3949 38.5031 54.5605 38.7903L55.1856 39.8727Z" fill="url(#paint8_radial_4_7847)"/>
<path d="M60.0521 34.2143L61.1351 34.8394C61.4223 35.005 61.7635 35.0497 62.0837 34.9638C62.4039 34.8779 62.6769 34.6684 62.8426 34.3812C63.0084 34.0941 63.0533 33.7529 62.9676 33.4327C62.8818 33.1124 62.6724 32.8393 62.3853 32.6735L61.3024 32.0483C61.1602 31.9662 61.0031 31.9128 60.8403 31.8913C60.6774 31.8698 60.5119 31.8806 60.3533 31.9231C60.1946 31.9656 60.0458 32.0389 59.9155 32.1389C59.7852 32.2389 59.6759 32.3636 59.5937 32.5059C59.5116 32.6481 59.4583 32.8052 59.4369 32.968C59.4155 33.1309 59.4264 33.2964 59.469 33.4551C59.5116 33.6137 59.585 33.7624 59.685 33.8927C59.7851 34.023 59.9098 34.1322 60.0521 34.2143Z" fill="url(#paint9_radial_4_7847)"/>
<path d="M65.0202 26.255C65.0203 26.0908 64.988 25.9282 64.9252 25.7765C64.8623 25.6248 64.7703 25.487 64.6542 25.3709C64.5381 25.2547 64.4002 25.1627 64.2485 25.0998C64.0968 25.037 63.9342 25.0047 63.77 25.0048H62.5198C62.1882 25.0048 61.8702 25.1365 61.6357 25.3709C61.4013 25.6054 61.2695 25.9234 61.2695 26.255C61.2695 26.5866 61.4013 26.9046 61.6357 27.1391C61.8702 27.3735 62.1882 27.5052 62.5198 27.5052H63.77C63.9342 27.5053 64.0968 27.473 64.2485 27.4102C64.4002 27.3473 64.5381 27.2552 64.6542 27.1391C64.7703 27.023 64.8623 26.8852 64.9252 26.7335C64.988 26.5818 65.0203 26.4192 65.0202 26.255Z" fill="url(#paint10_radial_4_7847)"/>
<path d="M60.6786 20.6289C60.8977 20.6291 61.1129 20.5714 61.3025 20.4617L62.3855 19.8365C62.5278 19.7545 62.6525 19.6452 62.7526 19.5149C62.8527 19.3847 62.9261 19.236 62.9686 19.0773C63.0112 18.9187 63.0221 18.7532 63.0007 18.5903C62.9793 18.4274 62.926 18.2704 62.8439 18.1281C62.7618 17.9859 62.6524 17.8612 62.5221 17.7612C62.3918 17.6612 62.243 17.5879 62.0844 17.5454C61.9257 17.5029 61.7602 17.4921 61.5973 17.5136C61.4345 17.535 61.2775 17.5884 61.1352 17.6706L60.0523 18.2957C59.8137 18.4333 59.6273 18.6459 59.5219 18.9003C59.4165 19.1547 59.3981 19.4369 59.4695 19.7028C59.5409 19.9688 59.6981 20.2038 59.9168 20.3712C60.1354 20.5387 60.4032 20.6293 60.6786 20.6289Z" fill="url(#paint11_radial_4_7847)"/>
<path d="M56.8937 12.1801C56.7516 12.0977 56.5946 12.0442 56.4317 12.0226C56.2689 12.001 56.1034 12.0118 55.9447 12.0542C55.7861 12.0967 55.6373 12.1701 55.5071 12.2701C55.3768 12.3702 55.2675 12.495 55.1856 12.6373L54.5605 13.7197C54.3949 14.0069 54.3501 14.3481 54.436 14.6683C54.522 14.9885 54.7315 15.2615 55.0186 15.4272C55.3058 15.5929 55.6469 15.6379 55.9672 15.5521C56.2874 15.4664 56.5605 15.257 56.7264 14.9699L57.3515 13.8876C57.4337 13.7454 57.487 13.5884 57.5084 13.4257C57.5299 13.2629 57.519 13.0975 57.4765 12.9389C57.434 12.7803 57.3606 12.6317 57.2606 12.5015C57.1606 12.3713 57.0359 12.2621 56.8937 12.1801Z" fill="url(#paint12_radial_4_7847)"/>
<path d="M47.5168 26.255C47.5168 26.4192 47.5491 26.5818 47.6119 26.7335C47.6747 26.8852 47.7668 27.0231 47.8829 27.1392C47.999 27.2553 48.1369 27.3474 48.2886 27.4102C48.4403 27.473 48.6029 27.5053 48.7671 27.5052H55.0183C55.3499 27.5052 55.6679 27.3735 55.9023 27.1391C56.1368 26.9046 56.2685 26.5866 56.2685 26.255C56.2685 25.9234 56.1368 25.6054 55.9023 25.371C55.6679 25.1365 55.3499 25.0048 55.0183 25.0048H50.0173V17.5034C50.0173 17.1718 49.8856 16.8538 49.6511 16.6193C49.4167 16.3848 49.0987 16.2531 48.7671 16.2531C48.4355 16.2531 48.1175 16.3848 47.883 16.6193C47.6486 16.8538 47.5168 17.1718 47.5168 17.5034V26.255Z" fill="url(#paint13_radial_4_7847)"/>
<defs>
<radialGradient id="paint0_radial_4_7847" cx="0" cy="0" r="1" gradientUnits="userSpaceOnUse" gradientTransform="translate(24.7647 47.2534) rotate(49.42) scale(66.4703 67.0098)">
<stop stop-color="#0F6AAB"/>
<stop offset="1" stop-color="#6A1CA8"/>
</radialGradient>
<radialGradient id="paint1_radial_4_7847" cx="0" cy="0" r="1" gradientUnits="userSpaceOnUse" gradientTransform="translate(38.7622 12.083) rotate(55.3788) scale(49.9399 47.6431)">
<stop stop-color="#0F6AAB"/>
<stop offset="1" stop-color="#6A1CA8"/>
</radialGradient>
<radialGradient id="paint2_radial_4_7847" cx="0" cy="0" r="1" gradientUnits="userSpaceOnUse" gradientTransform="translate(40.6699 15.5249) rotate(57.3084) scale(42.5314 39.4482)">
<stop stop-color="#0F6AAB"/>
<stop offset="1" stop-color="#6A1CA8"/>
</radialGradient>
<radialGradient id="paint3_radial_4_7847" cx="0" cy="0" r="1" gradientUnits="userSpaceOnUse" gradientTransform="translate(48.2907 11.1712) rotate(71.2364) scale(4.20034 2.61036)">
<stop stop-color="#0F6AAB"/>
<stop offset="1" stop-color="#6A1CA8"/>
</radialGradient>
<radialGradient id="paint4_radial_4_7847" cx="0" cy="0" r="1" gradientUnits="userSpaceOnUse" gradientTransform="translate(40.9825 13.129) rotate(66.0297) scale(4.15738 3.14911)">
<stop stop-color="#0F6AAB"/>
<stop offset="1" stop-color="#6A1CA8"/>
</radialGradient>
<radialGradient id="paint5_radial_4_7847" cx="0" cy="0" r="1" gradientUnits="userSpaceOnUse" gradientTransform="translate(35.6324 18.4776) rotate(59.7033) scale(3.83978 3.41274)">
<stop stop-color="#0F6AAB"/>
<stop offset="1" stop-color="#6A1CA8"/>
</radialGradient>
<radialGradient id="paint6_radial_4_7847" cx="0" cy="0" r="1" gradientUnits="userSpaceOnUse" gradientTransform="translate(33.6749 25.7843) rotate(52.6069) scale(3.33725 3.28546)">
<stop stop-color="#0F6AAB"/>
<stop offset="1" stop-color="#6A1CA8"/>
</radialGradient>
<radialGradient id="paint7_radial_4_7847" cx="0" cy="0" r="1" gradientUnits="userSpaceOnUse" gradientTransform="translate(35.6325 32.8552) rotate(59.7016) scale(3.83921 3.41234)">
<stop stop-color="#0F6AAB"/>
<stop offset="1" stop-color="#6A1CA8"/>
</radialGradient>
<radialGradient id="paint8_radial_4_7847" cx="0" cy="0" r="1" gradientUnits="userSpaceOnUse" gradientTransform="translate(55.3605 38.0322) rotate(66.0328) scale(4.15716 3.14864)">
<stop stop-color="#0F6AAB"/>
<stop offset="1" stop-color="#6A1CA8"/>
</radialGradient>
<radialGradient id="paint9_radial_4_7847" cx="0" cy="0" r="1" gradientUnits="userSpaceOnUse" gradientTransform="translate(60.5354 32.8551) rotate(59.7059) scale(3.8389 3.41178)">
<stop stop-color="#0F6AAB"/>
<stop offset="1" stop-color="#6A1CA8"/>
</radialGradient>
<radialGradient id="paint10_radial_4_7847" cx="0" cy="0" r="1" gradientUnits="userSpaceOnUse" gradientTransform="translate(62.4303 25.7843) rotate(52.6069) scale(3.33725 3.28546)">
<stop stop-color="#0F6AAB"/>
<stop offset="1" stop-color="#6A1CA8"/>
</radialGradient>
<radialGradient id="paint11_radial_4_7847" cx="0" cy="0" r="1" gradientUnits="userSpaceOnUse" gradientTransform="translate(60.5361 18.4774) rotate(59.7016) scale(3.83921 3.41234)">
<stop stop-color="#0F6AAB"/>
<stop offset="1" stop-color="#6A1CA8"/>
</radialGradient>
<radialGradient id="paint12_radial_4_7847" cx="0" cy="0" r="1" gradientUnits="userSpaceOnUse" gradientTransform="translate(55.3606 13.1288) rotate(66.0316) scale(4.15769 3.14916)">
<stop stop-color="#0F6AAB"/>
<stop offset="1" stop-color="#6A1CA8"/>
</radialGradient>
<radialGradient id="paint13_radial_4_7847" cx="0" cy="0" r="1" gradientUnits="userSpaceOnUse" gradientTransform="translate(50.2252 19.7611) rotate(68.3796) scale(12.8343 8.97022)">
<stop stop-color="#0F6AAB"/>
<stop offset="1" stop-color="#6A1CA8"/>
</radialGradient>
</defs>
</svg>
