<svg width="71" height="103" viewBox="0 0 71 103" fill="none" xmlns="http://www.w3.org/2000/svg">
<path d="M0.421 84.957C3.57167 82.455 5.008 81.2967 4.73 81.482C13.8113 73.976 20.9467 67.8137 26.136 62.995C31.418 58.1763 35.866 53.126 39.48 47.844C43.094 42.562 44.901 37.419 44.901 32.415C44.901 28.6157 44.0207 25.6503 42.26 23.519C40.4993 21.3877 37.8583 20.322 34.337 20.322C30.8157 20.322 28.0357 21.6657 25.997 24.353C24.051 26.9477 23.078 30.6543 23.078 35.473H0.143C0.328333 27.5963 1.99633 21.017 5.147 15.735C8.39033 10.453 12.6067 6.561 17.796 4.05899C23.078 1.55699 28.916 0.305993 35.31 0.305993C46.3373 0.305993 54.631 3.13233 60.191 8.78499C65.8437 14.4377 68.67 21.8047 68.67 30.886C68.67 40.8013 65.2877 50.0217 58.523 58.547C51.7583 66.9797 43.1403 75.227 32.669 83.289H70.199V102.61H0.421V84.957Z" fill="url(#paint0_linear_4_8282)" fill-opacity="0.41"/>
<defs>
<linearGradient id="paint0_linear_4_8282" x1="4.0566" y1="53" x2="62.1573" y2="54.1389" gradientUnits="userSpaceOnUse">
<stop stop-color="white"/>
<stop offset="1" stop-color="white" stop-opacity="0"/>
</linearGradient>
</defs>
</svg>
