<svg width="115" height="107" viewBox="0 0 115 107" fill="none" xmlns="http://www.w3.org/2000/svg">
<g clip-path="url(#clip0_4_8053)">
<path d="M42.6999 70.134C42.6999 70.134 28.7815 63.8844 17.2563 64.8313C6.80175 65.652 5.16429 67.1039 0 66.4726C1.32256 69.8183 6.99069 80.7393 18.5789 84.7794C30.167 88.7564 41.4403 86.7995 45.7859 83.4537C50.0685 80.108 45.345 71.4596 42.6999 70.134Z" fill="#218498"/>
<path d="M4.40869 68.6189C4.40869 68.6189 24.3101 77.3304 42.1962 75.626" stroke="white" stroke-width="1.2258" stroke-miterlimit="10"/>
<path d="M9.13184 75.626L16.2485 72.7222" stroke="white" stroke-width="1.2258" stroke-miterlimit="10"/>
<path d="M20.7202 68.9346C20.7202 69.124 24.247 74.4897 24.247 74.4897" stroke="white" stroke-width="1.2258" stroke-miterlimit="10"/>
<path d="M67.2617 71.0808C67.2617 71.0808 71.5443 60.0336 78.346 54.2891C84.518 49.0495 86.2814 48.9864 88.7376 45.8301C89.8082 48.3552 92.6423 57.4454 88.4857 65.9675C84.2661 74.4897 77.0235 79.5398 72.8039 80.0448C68.6472 80.5498 66.5059 73.2271 67.2617 71.0808Z" fill="#218498"/>
<path d="M87.478 49.3652C87.478 49.3652 81.3061 65.0207 70.5366 73.7953" stroke="white" stroke-width="0.9477" stroke-miterlimit="10"/>
<path d="M88.6745 55.741L83.1953 58.0767" stroke="white" stroke-width="0.9477" stroke-miterlimit="10"/>
<path d="M78.6611 58.4554C78.7871 58.5817 79.7318 63.4425 79.7318 63.4425" stroke="white" stroke-width="0.9477" stroke-miterlimit="10"/>
<path d="M50.0685 73.7953C50.0685 73.7953 46.7306 55.8673 35.1424 47.5345C23.5542 39.2018 15.5559 39.2018 8.62818 34.9092C8.62818 34.9092 7.93541 41.9163 12.5959 52.5216C17.2563 63.1269 22.8615 71.7753 33.505 76.4466C44.0855 81.0549 50.0685 73.7953 50.0685 73.7953Z" fill="#8182EE"/>
<path d="M11.5884 38.8862C11.5884 38.8862 30.797 61.8013 42.7631 72.0909" stroke="white" stroke-width="1.2258" stroke-miterlimit="10"/>
<path d="M14.1074 50.3752L22.2317 51.3221" stroke="white" stroke-width="1.2258" stroke-miterlimit="10"/>
<path d="M30.1672 48.1658L28.0259 57.3192" stroke="white" stroke-width="1.2258" stroke-miterlimit="10"/>
<path d="M25.6953 66.157L35.835 65.652" stroke="white" stroke-width="1.2258" stroke-miterlimit="10"/>
<path d="M73.3706 77.7722C73.3706 77.7722 80.4873 64.8312 91.4456 61.4224C102.467 58.0135 108.576 60.0336 115 58.5186C115 58.5186 113.74 64.0106 107.505 71.0177C101.27 77.9616 94.7206 83.2012 85.3996 84.0218C76.0787 84.8425 73.3706 77.7722 73.3706 77.7722Z" fill="#8182EE"/>
<path d="M111.662 60.7911C111.662 60.7911 91.0676 73.4796 79.3535 78.3404" stroke="white" stroke-width="0.9906" stroke-miterlimit="10"/>
<path d="M106.876 68.9344L100.389 67.6088" stroke="white" stroke-width="0.9906" stroke-miterlimit="10"/>
<path d="M95.0985 63.1899L94.4058 70.7652" stroke="white" stroke-width="0.9906" stroke-miterlimit="10"/>
<path d="M93.9647 78.0879L86.3442 75.121" stroke="white" stroke-width="0.9906" stroke-miterlimit="10"/>
<path d="M83.3845 88.8826C86.8484 90.9027 86.8484 94.1221 83.4475 96.1422L67.3248 105.548C63.861 107.568 58.3188 107.568 54.8549 105.548L38.6063 96.1422C35.1425 94.1221 35.1425 90.9027 38.5433 88.8826L54.666 79.4767C58.1299 77.4567 63.672 77.4567 67.1359 79.4767L83.3845 88.8826Z" fill="url(#paint0_linear_4_8053)"/>
<path d="M83.3845 84.5269C86.8484 86.547 86.8484 89.7664 83.4475 91.7865L67.3248 101.192C63.861 103.212 58.3188 103.212 54.8549 101.192L38.6063 91.7865C35.1425 89.7664 35.1425 86.547 38.5433 84.5269L54.666 75.121C58.1299 73.1009 63.672 73.1009 67.1359 75.121L83.3845 84.5269Z" stroke="#94C3FF" stroke-width="0.9256" stroke-miterlimit="10"/>
<path d="M89.1784 78.7192L68.9621 90.5239C64.6795 93.049 57.6259 93.049 53.3433 90.5239L33.001 78.7192C30.7967 77.4567 29.7261 75.8154 29.7261 74.1741V76.5098C29.7261 78.1511 30.7967 79.7924 33.001 81.0549L53.3433 92.8596C57.6888 95.3847 64.6795 95.3847 68.9621 92.8596L89.1784 81.0549C91.3197 79.7924 92.3904 78.1511 92.3904 76.5729V74.2372C92.3904 75.8785 91.3197 77.5198 89.1784 78.7192Z" fill="#A6D0F4"/>
<path d="M89.1154 69.6921C93.461 72.2171 93.461 76.2572 89.1784 78.7823L68.9621 90.587C64.6795 93.1121 57.6258 93.1121 53.3433 90.587L33.001 78.7823C28.6554 76.2572 28.6554 72.2171 32.938 69.6921L53.1543 57.8873C57.4369 55.3623 64.4906 55.3623 68.7732 57.8873L89.1154 69.6921Z" fill="url(#paint1_linear_4_8053)"/>
<path d="M92.9575 13.5092L70.474 0.505037C69.5293 -0.0631051 68.6476 -0.126232 67.9548 0.252529L66.0654 1.32569C66.6952 0.946924 67.5769 1.01005 68.5846 1.57819L91.0682 14.5823C93.0205 15.7186 94.532 18.4331 94.532 20.6425V28.4071C94.532 29.5434 94.1541 30.3009 93.5244 30.6797L95.4137 29.6065C96.0435 29.2278 96.4214 28.4702 96.4214 27.3339V19.5693C96.4214 17.2968 94.8469 14.6454 92.9575 13.5092Z" fill="#C7D8F2"/>
<path d="M91.068 14.5823C93.0204 15.7186 94.5319 18.433 94.5319 20.6425V28.4071C94.5319 30.6165 92.9574 31.5003 91.005 30.4271L68.5215 17.423C66.5691 16.2867 65.0576 13.5722 65.0576 11.3628V3.5982C65.0576 1.38876 66.6321 0.504987 68.5845 1.57814L91.068 14.5823Z" fill="#EAF1F7"/>
<path d="M92.9575 34.1516L70.474 21.1475C69.5293 20.5794 68.6476 20.5162 67.9548 20.895L66.0654 21.9681C66.6952 21.5894 67.5769 21.6525 68.5846 22.2207L91.0682 35.2248C93.0205 36.3611 94.532 39.0755 94.532 41.285V49.0496C94.532 50.1858 94.1541 50.9434 93.5244 51.3221L95.4137 50.249C96.0435 49.8702 96.4214 49.1127 96.4214 47.9764V40.2118C96.4214 38.0024 94.8469 35.2879 92.9575 34.1516Z" fill="#94C3FF"/>
<path d="M91.068 35.2247C93.0204 36.361 94.5319 39.0755 94.5319 41.2849V49.0495C94.5319 51.2589 92.9574 52.1427 91.005 51.0696L68.5215 38.0654C66.5691 36.9292 65.0576 34.2147 65.0576 32.0053V24.2407C65.0576 22.0312 66.6321 21.1474 68.5845 22.2206L91.068 35.2247Z" fill="#8182EE"/>
<path d="M87.352 26.8921H87.2891C87.2891 26.8289 87.352 26.8921 87.352 26.8921Z" fill="#A6D0F4"/>
<path d="M83.9512 23.6726C83.9512 23.6726 83.9512 23.6095 83.8882 23.6095C83.8882 23.6726 83.8882 23.6726 83.9512 23.6726Z" fill="#A6D0F4"/>
<path d="M83.5102 23.0414C83.4472 22.9151 83.3843 22.7889 83.3213 22.6626C83.3843 22.7257 83.4472 22.9151 83.5102 23.0414Z" fill="#A6D0F4"/>
<path d="M84.2031 24.1145C84.1401 23.9882 84.0142 23.862 83.9512 23.7357C84.0771 23.862 84.1401 23.9882 84.2031 24.1145Z" fill="#A6D0F4"/>
<path d="M84.2661 24.1776C84.2661 24.1776 84.2661 24.1145 84.2031 24.1145C84.2661 24.1776 84.2661 24.1776 84.2661 24.1776Z" fill="#A6D0F4"/>
<path d="M84.581 24.6195L84.5181 24.5564C84.5181 24.5564 84.581 24.5564 84.581 24.6195Z" fill="#A6D0F4"/>
<path d="M86.9741 26.7027C86.9111 26.7027 86.9111 26.6396 86.9111 26.6396C86.9111 26.6396 86.8481 26.6396 86.8481 26.5764C86.8481 26.5764 86.8481 26.5764 86.7851 26.5764C86.7851 26.5764 86.7851 26.5764 86.7222 26.5764C86.7222 26.5764 86.7222 26.5764 86.6592 26.5764C86.6592 26.5764 86.6592 26.5764 86.5962 26.5764C86.5962 26.5764 86.5962 26.5764 86.5332 26.5764C86.5332 26.5764 86.5332 26.5764 86.4702 26.5133C86.4073 26.5133 86.4073 26.4502 86.4073 26.4502C86.4073 26.4502 86.3443 26.4502 86.3443 26.387C86.3443 26.387 86.3443 26.387 86.2813 26.387C86.2813 26.387 86.2813 26.387 86.2183 26.387C86.2183 26.387 86.2183 26.387 86.1553 26.387C86.1553 26.387 86.1553 26.387 86.0924 26.387C86.0924 26.387 86.0924 26.387 86.0294 26.3239C86.0294 26.3239 85.9664 26.3239 85.9664 26.2608L85.9034 26.1977L85.8405 26.1345L85.7775 26.0714C85.7775 26.0714 85.7775 26.0714 85.7145 26.0083C85.7145 26.0083 85.7145 26.0083 85.6515 25.9452C85.6515 25.9452 85.6515 25.9452 85.5885 25.882C85.5255 25.882 85.5256 25.8189 85.5256 25.8189C85.4626 25.7558 85.4626 25.7558 85.3996 25.6927L85.3366 25.6295L85.2736 25.5664L85.2107 25.5033L85.1477 25.4401L85.0847 25.377C85.0217 25.3139 84.9587 25.2508 84.8958 25.1876L84.8328 25.1245L84.7698 25.0614L84.7068 24.9983L84.6438 24.9351L84.5809 24.872C84.5179 24.8089 84.4549 24.6826 84.3919 24.6195L84.3289 24.5564L84.266 24.4932L84.203 24.4301C84.14 24.3039 84.0141 24.1776 83.9511 24.0514L83.8881 23.9882L83.8251 23.9251C83.6992 23.7988 83.6362 23.6095 83.5732 23.4832C83.5732 23.4832 83.5732 23.4201 83.5102 23.4201C83.5102 23.4201 83.5102 23.357 83.4472 23.357C83.3843 23.2307 83.3213 23.1045 83.2583 22.9782C84.0141 22.8519 85.5885 22.7888 85.6515 22.7888C85.6515 22.7888 85.6515 22.8519 85.7145 22.9151C85.9034 23.1676 86.3443 23.7357 86.9111 24.1145C87.289 24.3039 87.6668 24.4301 88.1077 24.3039H88.1707C88.2337 24.367 89.6192 26.0083 90.4379 27.0814L90.375 27.1446C90.375 27.1446 90.3749 27.1446 90.312 27.1446C90.312 27.1446 90.312 27.1446 90.249 27.1446C90.249 27.1446 90.249 27.1446 90.186 27.1446H90.123C90.0601 27.1446 90.0601 27.2077 89.9971 27.2077H89.9341H89.8711H89.8081C89.7452 27.2077 89.6822 27.2708 89.6822 27.2708H89.6192H89.5562H89.4932C89.4303 27.2708 89.3673 27.2708 89.3673 27.334H89.3043H89.2413H89.1783H89.1154C89.0524 27.334 89.0524 27.334 88.9894 27.334H88.9264H88.8635H88.8005H88.7375C88.6745 27.334 88.6745 27.334 88.6115 27.334H88.5486H88.4856H88.4226H88.3596H88.2966C88.2337 27.334 88.2337 27.334 88.1707 27.334H88.1077C88.1077 27.334 88.1077 27.334 88.0447 27.334C88.0447 27.334 88.0447 27.334 87.9817 27.334H87.9188C87.8558 27.334 87.8558 27.334 87.7928 27.2708H87.7298C87.7298 27.2708 87.7298 27.2708 87.6668 27.2708C87.6668 27.2708 87.6668 27.2708 87.6039 27.2708C87.6039 27.2708 87.6039 27.2708 87.5409 27.2708H87.4779H87.4149H87.3519C87.3519 27.2708 87.352 27.2708 87.289 27.2708C87.289 27.2708 87.289 27.2708 87.226 27.2708C87.226 27.2708 87.226 27.2708 87.163 27.2708C87.163 27.2708 87.163 27.2708 87.1 27.2708C87.0371 27.2708 87.0371 27.2708 87.0371 27.2077H86.9741C86.9741 27.2077 86.9741 27.2077 86.9111 27.2077C86.9111 27.2077 86.9111 27.2077 86.8481 27.2077C86.8481 27.2077 86.8481 27.2077 86.7851 27.2077C87.0371 26.7027 87.0371 26.7027 86.9741 26.7027Z" fill="#4B5CC0"/>
<path d="M84.518 24.4932C84.4551 24.4301 84.4551 24.367 84.3921 24.3038C84.4551 24.4301 84.4551 24.4301 84.518 24.4932Z" fill="#A6D0F4"/>
<path d="M85.0219 25.1244C84.959 25.0613 84.896 24.9982 84.833 24.9351C84.959 24.9982 84.959 25.0613 85.0219 25.1244Z" fill="#A6D0F4"/>
<path d="M85.4628 19.3168L85.5258 19.8849C85.5258 19.948 85.5258 20.0112 85.5258 20.1374C85.5258 20.1374 85.5258 20.1374 85.4628 20.1374C85.0849 19.8849 84.896 18.8749 85.1479 18.8749C85.2109 18.8749 85.2109 18.8749 85.2739 18.8749C85.3368 18.8749 85.3368 18.938 85.3368 18.938C85.3998 19.1905 85.3998 19.3799 85.4628 19.3168Z" fill="#CBDCEB"/>
<path d="M87.9821 23.6094C88.0451 23.7357 88.1081 23.8619 88.171 23.925C87.7302 24.0513 87.2893 23.925 86.9744 23.7357C86.4076 23.42 85.9668 22.7888 85.7778 22.5363C85.8408 22.5363 85.9038 22.4731 85.9668 22.41C86.0298 22.2206 86.0927 21.8419 86.1557 21.5894L86.6595 22.2837C86.7225 22.41 86.8485 22.5363 86.9744 22.5994C87.1004 22.6625 87.1634 22.6625 87.2893 22.6625L87.7932 22.5363C87.8561 22.8519 87.9191 23.2938 87.9821 23.6094Z" fill="#CBDCEB"/>
<path d="M88.108 20.3269C88.297 20.4531 88.3599 20.4531 88.3599 20.4531L88.4859 21.3369V21.6525C88.4859 21.7157 88.4859 21.7788 88.4859 21.8419C88.4229 22.2207 88.171 22.4732 87.8561 22.5994L87.3523 22.7257C87.2893 22.7257 87.1633 22.7257 87.0374 22.6626C86.9114 22.5994 86.8484 22.4732 86.7225 22.3469L86.2186 21.6525C85.9037 21.2106 85.6518 20.6425 85.5889 20.2006C85.5889 20.1375 85.5889 20.0744 85.5889 19.9481L85.5259 19.38L85.9667 18.0543C85.9667 18.0543 86.0297 17.9912 86.2186 18.0543C86.2816 18.1174 86.4076 18.1806 86.5335 18.4331C86.9114 19.0012 86.9744 19.5062 87.6672 20.0112C87.8561 20.1375 87.9821 20.2637 88.108 20.3269Z" fill="#CBDCEB"/>
<path d="M88.8637 21.0213C89.1156 21.3369 88.9267 22.0313 88.5488 21.9051L88.4858 21.8419C88.4858 21.7788 88.4858 21.7157 88.4858 21.6526V21.3369V21.4001C88.4858 21.4001 88.5488 21.2107 88.6748 20.8319H88.7378C88.7378 20.9582 88.8007 20.9582 88.8637 21.0213Z" fill="#CBDCEB"/>
<path d="M87.5412 17.2968C88.2969 17.928 88.6748 18.8118 88.8007 19.6324C88.8637 20.0743 88.8008 20.5162 88.6748 20.895C88.6118 21.2106 88.4859 21.4 88.4859 21.4631V21.4L88.3599 20.5162C88.3599 20.5162 88.2969 20.5162 88.108 20.39C87.982 20.3268 87.7931 20.2006 87.5412 20.0112C86.8484 19.5062 86.7854 19.0012 86.4075 18.433C86.2816 18.2437 86.1556 18.1174 86.0926 18.0543C85.9667 17.9911 85.9037 18.0543 85.8407 18.0543L85.3999 19.3799V19.4431C85.3999 19.4431 85.3369 19.2537 85.3369 19.0643C85.2739 18.8118 85.2109 18.4962 85.2109 18.3068C85.148 17.928 85.3369 17.1074 85.5888 16.8549C85.8407 16.6655 86.4075 16.6655 87.0373 17.0442C87.1633 17.0442 87.3522 17.1705 87.5412 17.2968Z" fill="#8182EE"/>
<path d="M85.7778 22.5363C85.7148 22.4732 85.7148 22.41 85.7148 22.41C85.6519 22.41 84.0774 22.4732 83.3216 22.5994C82.6918 21.3369 82.314 19.885 82.314 18.6224C82.314 15.7186 84.3923 14.5192 86.9114 15.9711C89.4306 17.423 91.5089 21.0213 91.5089 23.9251C91.5089 25.1876 91.1311 26.1345 90.4383 26.7027L90.5013 26.6395C89.6825 25.5664 88.297 23.9251 88.234 23.862H88.171C88.1081 23.7357 88.0451 23.6726 87.9821 23.5463C87.8561 23.2307 87.8561 22.7888 87.7932 22.5363C88.108 22.41 88.297 22.1575 88.4229 21.7788L88.4859 21.8419C88.8638 21.9682 89.0527 21.2738 88.8008 20.9581C88.7378 20.895 88.7378 20.895 88.6749 20.8319H88.6119C88.6749 20.4531 88.8008 20.0112 88.7378 19.5693C88.6119 18.7487 88.234 17.8649 87.4783 17.2336C87.2893 17.1074 87.1634 16.9811 86.9744 16.8549C86.3446 16.4761 85.7778 16.4761 85.5259 16.6655C85.211 16.918 85.0221 17.7387 85.148 18.1174C85.211 18.3068 85.274 18.6224 85.274 18.8749L85.211 18.8118C85.148 18.8118 85.148 18.8118 85.0851 18.8118C84.8331 18.8118 85.0221 19.7587 85.4 20.0743C85.4629 20.0743 85.4629 20.1375 85.4629 20.1375C85.5259 20.6425 85.7778 21.1475 86.0927 21.5894C86.0927 21.8419 86.0297 22.2207 85.9038 22.41C85.9038 22.5363 85.8408 22.5363 85.7778 22.5363Z" fill="#25437F"/>
<path d="M85.0849 38.1918C85.0849 38.4443 85.1479 38.6968 85.2739 38.823C85.2739 38.823 85.2739 38.823 85.3368 38.7599L85.3998 39.2018C85.3998 39.2649 85.3998 39.328 85.3998 39.4543H85.3368C85.0849 39.2649 84.896 38.7599 84.896 38.4443C84.896 38.318 84.959 38.1918 85.022 38.1918C85.022 38.1286 85.022 38.1286 85.0849 38.1918Z" fill="#CBDCEB"/>
<path d="M87.4153 41.9162C87.4153 42.1056 87.4783 42.5474 87.6043 42.9893C87.6043 43.0525 87.6043 43.0525 87.6043 43.1156C87.3523 43.1787 87.1004 43.1787 86.8485 43.0525C86.8485 43.0525 86.8485 43.0525 86.7855 43.0525C86.3447 42.8 86.0928 42.2949 86.0298 42.2318C86.1557 41.9793 86.2187 41.5374 86.2187 41.2849L86.5336 41.7268C86.5966 41.8531 86.7225 41.9793 86.8485 42.0424C86.9745 42.1056 87.0374 42.1056 87.1634 42.1056L87.4153 41.9162Z" fill="#CBDCEB"/>
<path d="M89.3044 45.0094C89.1784 44.82 88.9895 44.6306 88.8005 44.3781C88.8005 44.5044 88.7376 44.6938 88.6746 44.82C88.2967 45.6407 87.6669 45.5775 87.6039 45.5775C87.6039 45.5775 87.7299 45.0725 87.7299 44.5675C87.7299 44.3781 87.7299 44.2519 87.6669 44.1256C87.6039 43.9994 87.6039 43.81 87.6039 43.6837C87.6039 43.4944 87.541 43.305 87.541 43.0525C87.289 43.1156 87.0371 43.1156 86.7852 42.9893C86.7852 42.9893 86.7852 42.9893 86.7222 42.9893C86.2814 42.7368 86.0295 42.2318 85.9665 42.1687C85.9035 42.1687 84.7699 42.0424 84.266 42.1056C84.0771 42.1056 83.8882 42.4843 83.7622 42.8631C84.5809 44.1888 85.6516 45.325 86.8482 46.0194C87.9818 46.6507 88.9895 46.777 89.8082 46.4613C89.6823 45.8301 89.4933 45.2619 89.3044 45.0094Z" fill="#4B5CC0"/>
<path d="M88.2338 42.2319C88.1078 41.9793 88.0448 41.7268 88.0448 41.6006C87.9189 41.7268 87.7929 41.8531 87.667 41.8531C87.667 41.8531 87.667 41.8531 87.604 41.8531L87.415 41.9162C87.415 42.1056 87.478 42.5475 87.604 42.9894C87.604 43.0525 87.604 43.0525 87.604 43.1156C87.604 43.305 87.604 43.4944 87.667 43.7469C87.667 43.8732 87.7299 44.0625 87.7299 44.1888C87.7929 44.315 87.7929 44.5044 87.7929 44.6307C87.7929 45.1357 87.667 45.6407 87.667 45.6407C87.7299 45.6407 88.3597 45.7038 88.7376 44.8832C88.8006 44.7569 88.8636 44.5675 88.8636 44.4413C88.8636 44.3782 88.8636 44.2519 88.8636 44.1888C88.8636 43.4944 88.5487 42.8631 88.2338 42.2319Z" fill="#8182EE"/>
<path d="M88.171 40.8431L87.982 39.9593C86.2186 38.8861 85.7148 37.4342 85.6518 37.3711C85.6518 37.4342 85.6518 37.5605 85.6518 37.6236C85.6518 38.1286 85.4629 38.5074 85.3369 38.6968C85.2739 38.7599 85.2739 38.823 85.2739 38.823L85.3369 39.2649C85.3369 39.328 85.3369 39.3912 85.3369 39.5174C85.3999 40.0224 85.6518 40.5274 85.9667 40.9693L86.2186 41.285C86.2186 41.2218 86.2186 41.2218 86.2186 41.285L86.5335 41.7268C86.5965 41.8531 86.7224 41.9794 86.8484 42.0425C86.9744 42.1056 87.0373 42.1056 87.1633 42.1056L87.4782 42.0425L87.6671 41.9794C87.6671 41.9794 87.6671 41.9794 87.7301 41.9794C87.8561 41.9162 87.982 41.8531 88.108 41.7268C88.2339 41.6006 88.2969 41.4112 88.2969 41.2218C88.2339 41.0325 88.171 40.9062 88.171 40.8431Z" fill="#CBDCEB"/>
<path d="M88.1709 40.843L88.2339 41.0955C88.2339 41.0324 88.1709 40.9061 88.1709 40.843Z" fill="#FF8D68"/>
<path d="M88.5488 40.2118C88.6118 40.2118 88.6118 40.2749 88.6748 40.338C88.7377 40.4012 88.8007 40.5905 88.8007 40.7168C88.8007 41.0324 88.6118 41.3481 88.3599 41.2218C88.3599 41.2218 88.2969 41.2218 88.2969 41.1587C88.2969 41.0324 88.4228 40.6537 88.5488 40.2118C88.5488 40.1486 88.5488 40.1486 88.5488 40.2118Z" fill="#CBDCEB"/>
<path d="M86.9114 35.4141C89.4306 36.866 91.5089 40.4643 91.5089 43.3681C91.5089 45.0094 90.8791 46.0825 89.8714 46.4613C89.7455 45.83 89.5566 45.2619 89.3676 45.0094C89.2417 44.82 89.0527 44.6306 88.8638 44.3781C88.8638 44.315 88.8638 44.1887 88.8638 44.1256C88.8638 43.4943 88.5489 42.7999 88.297 42.1687C88.171 41.9162 88.108 41.6637 88.108 41.5374C88.234 41.4112 88.297 41.2218 88.297 41.0324C88.297 41.0955 88.36 41.0955 88.36 41.0955C88.6748 41.2218 88.8008 40.9061 88.8008 40.5905C88.8008 40.4643 88.8008 40.338 88.6748 40.2117C88.6119 40.1486 88.6119 40.1486 88.5489 40.0855C88.5489 39.7699 88.6119 39.4542 88.6119 39.1386C88.6119 39.0755 88.6119 38.9492 88.6119 38.8861C88.5489 38.0654 87.9821 37.0554 86.9114 36.2979C86.9114 36.2979 86.8484 36.2979 86.8484 36.2348C86.7855 36.1716 86.7225 36.1085 86.5965 36.1085C85.7778 35.6666 85.211 35.9191 85.085 36.4873C85.085 36.5504 85.085 36.5504 85.0221 36.6135C84.9591 36.866 84.9591 37.2448 84.9591 37.5604C84.9591 37.7498 84.9591 37.9392 84.9591 38.1286C84.8961 38.1286 84.8961 38.1286 84.8331 38.1286C84.7701 38.1286 84.7072 38.2548 84.7072 38.3811C84.7072 38.6967 84.8961 39.2017 85.148 39.3911C85.211 39.3911 85.211 39.3911 85.211 39.4542C85.274 39.9592 85.5259 40.4643 85.8408 40.9061L86.0927 41.2218C86.0927 41.4743 86.0297 41.853 85.9038 42.1687C85.8408 42.1687 84.7072 42.0424 84.2033 42.1056C84.0144 42.1056 83.8254 42.4843 83.6995 42.8631C82.7548 41.348 82.188 39.5805 82.188 38.0654C82.3139 35.0985 84.3923 33.9622 86.9114 35.4141Z" fill="#25437F"/>
<path d="M88.6118 39.0124C88.5488 38.1917 87.982 37.1817 86.9113 36.4242C86.9113 36.4242 86.8484 36.4242 86.8484 36.3611C86.7854 36.2979 86.7224 36.2348 86.5964 36.2348C85.7777 35.7929 85.2739 36.0454 85.085 36.6136C85.085 36.6767 85.0849 36.6767 85.022 36.7398C84.959 36.9923 84.959 37.3711 84.959 37.6867C84.959 37.8761 84.959 38.0655 85.022 38.2549C85.022 38.5074 85.0849 38.7599 85.2109 38.8861C85.2109 38.8861 85.2109 38.8861 85.2739 38.823C85.2739 38.823 85.3369 38.7599 85.3369 38.6967C85.4628 38.5074 85.6518 38.1286 85.6518 37.6236C85.6518 37.5605 85.6518 37.4973 85.6518 37.3711C85.6518 37.4342 86.2186 38.8861 87.982 39.9593L88.1709 40.8431L88.2339 41.0956C88.2339 41.0324 88.4228 40.6537 88.4858 40.1487C88.5488 39.833 88.6118 39.5174 88.6118 39.2018C88.6748 39.1386 88.6118 39.0755 88.6118 39.0124Z" fill="#8182EE"/>
<path d="M80.4874 15.5923C80.6763 15.7186 80.8023 15.9079 80.8023 16.1604C80.8023 16.4129 80.6763 16.4129 80.4874 16.3498L67.7026 8.96398C67.5137 8.83773 67.3877 8.64835 67.3877 8.39584C67.3877 8.14333 67.5137 8.14333 67.7026 8.20646L80.4874 15.5923Z" fill="#79AEF5"/>
<path d="M76.7716 15.3398C76.9605 15.466 77.0865 15.6554 77.0865 15.9079C77.0865 16.0973 76.9605 16.1604 76.7716 16.0973L67.6396 10.7315C67.4507 10.6053 67.3247 10.4159 67.3247 10.1634C67.3247 9.97399 67.4507 9.91086 67.6396 9.97399L76.7716 15.3398Z" fill="#79AEF5"/>
<path d="M80.4874 36.298C80.6763 36.4242 80.8023 36.6136 80.8023 36.8661C80.8023 37.1186 80.6763 37.1186 80.4874 37.0555L67.7026 29.6697C67.5137 29.5434 67.3877 29.354 67.3877 29.1015C67.3877 28.849 67.5137 28.849 67.7026 28.9121L80.4874 36.298Z" fill="#254DA1"/>
<path d="M76.7716 35.9823C76.9605 36.1086 77.0865 36.298 77.0865 36.5505C77.0865 36.7399 76.9605 36.803 76.7716 36.7399L67.6396 31.4372C67.4507 31.3109 67.3247 31.1216 67.3247 30.8691C67.3247 30.6797 67.4507 30.6166 67.6396 30.6797L76.7716 35.9823Z" fill="#254DA1"/>
<path d="M76.7719 40.1487C77.3387 39.8331 78.0944 39.8962 78.9132 40.3381C80.5506 41.285 81.8732 43.6207 81.8732 45.5145C81.8732 46.4614 81.5583 47.0926 80.9915 47.4083L80.3617 47.787C80.9285 47.4714 81.2434 46.8401 81.2434 45.8932C81.2434 43.9994 79.9208 41.6637 78.2834 40.7168C77.4647 40.2118 76.7089 40.2118 76.1421 40.5274L76.7719 40.1487Z" fill="#86E563"/>
<path d="M78.2203 40.7169C79.8577 41.6638 81.1803 43.9995 81.1803 45.8933C81.1803 47.7871 79.8577 48.5446 78.2203 47.5977C76.5828 46.6508 75.2603 44.3151 75.2603 42.4213C75.2603 40.5275 76.5828 39.77 78.2203 40.7169Z" fill="#2AB774"/>
<path d="M79.2911 43.2419L79.9209 44.3151L77.4647 45.7039L76.2681 43.6838L76.9608 43.3051L77.4647 44.252L79.2911 43.2419Z" fill="white"/>
<path d="M63.6086 29.859C63.2938 28.849 62.3491 27.9652 60.8376 28.0283C59.389 28.0915 58.3814 28.7227 58.0035 29.7959C57.8146 30.4272 57.8146 31.5003 58.1924 32.321C58.3814 32.6997 58.7593 33.0785 59.1371 33.3941L58.6963 34.846C59.0741 35.2879 60.5856 35.8561 61.7193 35.7929C61.7193 35.7929 61.8452 35.2879 61.9712 34.7198C62.664 34.9092 63.2308 34.341 63.4827 33.5204C63.7976 32.9522 63.8606 30.6797 63.6086 29.859Z" fill="#FF8E54"/>
<path d="M63.6089 29.859C63.294 28.849 62.3493 27.9652 60.8378 28.0283H60.7749L57.9408 30.0484C57.8148 30.6797 57.8778 31.6266 58.2557 32.321C58.4446 32.6997 58.8225 33.0785 59.2004 33.3941L58.7595 34.846C59.1374 35.2879 60.6489 35.8561 61.7825 35.7929C61.7825 35.7929 61.9085 35.2879 62.0344 34.7198C62.2864 34.7829 62.5383 34.7829 62.7272 34.6567C62.5383 34.5935 62.3493 34.341 62.1604 34.0254C61.9085 33.5204 62.7902 33.2047 62.7902 32.7628C62.8532 32.2578 62.5383 31.4372 63.1051 31.0584C63.42 30.869 63.5459 30.4903 63.5459 30.1746C63.6719 30.0484 63.6089 29.9853 63.6089 29.859Z" fill="#FF5F4D"/>
<path d="M61.2155 81.4968C67.8938 81.4968 73.3075 78.0488 73.3075 73.7954C73.3075 69.5419 67.8938 66.0939 61.2155 66.0939C54.5373 66.0939 49.1235 69.5419 49.1235 73.7954C49.1235 78.0488 54.5373 81.4968 61.2155 81.4968Z" fill="#CBDCEB"/>
<path d="M66.7578 34.2148L67.2616 33.836L67.9544 32.4472C67.9544 32.4472 68.3323 32.321 68.3953 32.2579C68.4582 32.2579 69.214 32.3841 69.214 32.3841C69.214 32.3841 69.5289 32.0054 69.6549 31.9422C69.7178 31.8791 70.0957 31.5003 70.2846 31.5635C70.4106 31.6266 70.4106 31.816 70.2846 31.9422C70.2217 32.0685 69.9068 32.3841 69.9068 32.3841L69.5919 33.2048V33.5204C69.5919 33.5204 69.7808 33.5204 69.8438 33.7098C69.9068 33.8992 69.9068 34.0885 69.7178 34.1517C69.5289 34.2148 69.34 34.2779 69.34 34.2779C69.34 34.2779 68.8991 34.5936 68.6472 34.6567C68.3953 34.7198 68.1434 34.7829 68.1434 34.7829L68.0174 35.1617L66.7578 34.2148Z" fill="#FF8E54"/>
<path d="M69.8438 33.6466C69.7178 33.6466 69.5289 33.6466 69.4659 33.7097C69.277 33.7729 69.0251 34.1516 68.9621 34.2147C68.8361 34.2779 68.2693 34.5304 68.0174 34.341C67.8285 34.1516 67.3876 34.0885 67.1357 34.0254L66.7578 34.2779L67.8914 35.2248L68.0174 34.846C68.0174 34.846 68.2693 34.7829 68.5212 34.7198C68.7731 34.6566 69.214 34.341 69.214 34.341C69.214 34.341 69.4029 34.2779 69.5919 34.2147C69.9068 34.0254 69.9068 33.836 69.8438 33.6466Z" fill="#FF5F4D"/>
<path d="M66.1909 34.4673L66.8207 33.9623C66.8207 33.9623 67.8914 34.2148 68.0173 35.0986L67.5135 35.6667L66.1909 34.4673Z" fill="#F9FBFC"/>
<path d="M62.6641 37.3711L66.1909 34.0885C66.1909 34.0885 67.7654 34.1516 67.9543 35.5404L64.4275 39.6437C64.4275 39.6437 62.6641 39.2649 62.6641 37.3711Z" fill="#253C72"/>
<path d="M64.4277 39.6437L67.9545 35.5405C67.8915 35.1617 67.7656 34.9092 67.5766 34.7198C66.38 36.4243 64.1757 38.255 64.1757 38.255L63.8608 39.4544C64.1757 39.5806 64.4277 39.6437 64.4277 39.6437Z" fill="#252F4C"/>
<path d="M55.9253 72.2803L55.7993 73.7953C55.7993 74.0478 55.9253 74.2372 56.1142 74.3635C56.3031 74.4266 56.618 74.4897 56.9959 74.4266C57.8776 74.3004 58.2555 73.8585 58.3815 73.5428C58.5074 73.2903 60.2079 72.0909 60.0189 71.5228C59.704 70.9546 59.0742 71.5228 58.5074 71.5228C57.9406 71.5228 56.681 71.2071 55.9253 72.2803Z" fill="#171E26"/>
<path d="M56.303 49.4284C56.303 49.4284 55.9251 59.4656 56.1141 62.622C56.1141 62.622 55.3583 70.5128 55.7362 72.4066C55.7362 72.4066 57.1217 73.4166 58.3183 72.596C58.6332 72.4697 58.6332 72.091 58.6332 72.091C58.6332 72.091 59.389 64.7051 59.6409 62.4326C59.8298 60.16 61.4043 53.3423 61.0894 51.8904C60.7115 50.4385 58.8851 48.3553 56.303 49.4284Z" fill="#171E26"/>
<path d="M62.664 74.3635C62.664 74.3635 62.0971 76.0679 62.538 76.4467C62.9159 76.8255 63.4197 76.9517 63.7976 76.8255C64.1755 76.6992 64.4903 76.573 64.4903 76.573L64.6163 76.2573L64.7423 76.5098C64.7423 76.5098 64.9312 76.4467 65.1831 76.3205C65.435 76.1942 66.1908 75.8786 66.5057 75.6892C66.8206 75.4998 67.3874 75.121 67.4504 74.7423C67.5133 74.3004 65.9389 74.4898 65.561 74.4898C65.1201 74.4898 64.8682 74.3635 64.7423 74.3635C64.6163 74.3635 62.9788 74.5529 62.9788 74.5529" fill="#171E26"/>
<path d="M65.1199 49.239C65.1199 49.239 65.5608 50.7541 65.5608 53.7842C65.5608 56.8143 65.3088 64.4526 65.3088 64.4526C65.3088 64.4526 65.1829 72.2172 65.0569 74.1741C65.0569 74.1741 64.1122 75.3736 62.5378 74.4266C61.782 73.4797 62.0339 72.8485 62.0339 72.8485C62.0339 72.8485 60.9633 68.114 61.4041 63.7582C61.4041 63.7582 59.9556 54.9205 59.7037 53.9104C59.4518 52.8373 54.8543 52.3954 56.6807 47.2821L65.1199 49.239Z" fill="#1F2F3F"/>
<path d="M62.664 53.9104C62.664 53.9104 64.8053 54.8573 64.4904 57.8874C64.2385 60.9174 63.6716 62.9375 63.9865 64.7682C64.2385 66.5989 64.6163 67.672 64.3644 69.9446C64.1755 71.7753 63.4197 73.5428 63.9865 74.7422C64.6793 74.616 65.0572 74.1741 65.0572 74.1741C65.1832 72.2172 65.3091 64.4526 65.3091 64.4526C65.3091 64.4526 65.561 56.8142 65.561 53.7841C65.561 52.4585 65.498 51.4484 65.3721 50.754L62.0972 52.2059L62.664 53.9104Z" fill="#25437F"/>
<path d="M66.065 39.5805C66.065 38.9493 65.7501 38.318 65.2463 37.9392C64.0497 37.1186 62.4122 36.1086 61.3416 35.5404C60.019 34.846 58.6964 34.0885 57.9407 34.0254C55.9254 33.836 54.6658 35.7298 54.9177 38.1918C55.0436 39.7068 55.4215 41.3481 55.9883 43.1157C56.2402 43.8732 56.3662 45.1357 56.4292 46.3351C56.4292 46.9033 56.3662 47.5977 56.2403 47.9764C55.9254 48.7339 55.6105 51.8903 55.6105 51.8903C55.6105 51.8903 57.8147 54.1628 60.7118 54.4154C63.6088 54.6047 64.7424 54.0366 64.7424 54.0366L64.9314 52.7109L65.3092 53.9103C65.3092 53.9103 65.8131 53.721 65.8761 53.2159C65.939 52.7109 65.4352 48.6708 65.3092 47.9133C65.4982 46.272 65.8131 43.8732 65.8761 42.7369C65.939 41.6637 66.002 40.5275 66.065 39.5805Z" fill="#25437F"/>
<path d="M58.8852 34.0254C58.8852 34.0254 59.8298 34.846 62.0971 35.1617L62.412 35.9823C62.412 35.9823 61.5303 36.2348 60.4596 36.1086C59.326 35.9823 58.4443 35.0985 58.3183 34.9092C58.1924 34.7198 58.1924 34.7198 58.1924 34.7198L58.8852 34.0254Z" fill="#F9FBFC"/>
<path d="M57.5627 29.7959C57.5627 29.7959 57.5627 28.2809 59.2001 27.839C60.8376 27.3971 61.0265 27.5865 61.5304 27.2708C61.9712 26.9552 62.601 26.8921 63.4197 27.1446C64.3014 27.3971 64.4274 28.2809 64.1755 29.0384C63.9236 29.859 63.7976 30.3009 63.1048 30.6166C62.475 30.9322 62.601 31.7528 62.601 31.7528C62.601 31.7528 62.727 32.6366 62.2861 32.9522L61.9082 31.9422C61.9082 31.9422 61.5933 33.0785 61.2784 33.4573C60.9635 33.836 60.2078 34.0254 59.515 34.0254C58.8223 34.0254 57.8776 32.2579 57.6257 31.6266C57.3737 31.0584 57.8776 30.4903 57.8776 30.4903C57.8776 30.4903 57.4367 30.2378 57.5627 29.7959Z" fill="#25437F"/>
<path d="M63.4198 39.5805C62.79 38.0024 60.3968 38.3811 57.1848 37.1817C55.6733 36.6136 55.4214 35.7298 55.6733 34.9723C55.0435 35.7298 54.7916 36.8661 54.8546 38.1918C54.9806 39.7068 55.3584 41.3481 55.9252 43.1157C56.1772 43.8732 56.3031 45.1357 56.3661 46.3351C56.3661 46.9033 56.3031 47.5977 56.1772 47.9764C55.8623 48.7339 55.5474 51.8903 55.5474 51.8903C55.5474 51.8903 57.7516 54.1628 60.6487 54.4154C62.2861 54.5416 63.2938 54.4154 63.9236 54.226C64.3645 50.8803 62.3491 49.3021 61.8453 47.787C61.3415 46.2089 64.1125 41.1587 63.4198 39.5805Z" fill="#252F4C"/>
<path d="M62.853 27.6496C62.5381 27.0815 61.9713 27.0815 61.5304 27.2077C61.0895 27.5233 60.9006 27.334 59.2002 27.7759C57.5627 28.2177 57.5627 29.7328 57.5627 29.7328C57.4368 30.1747 57.7516 30.4903 57.7516 30.4903C57.7516 30.4903 57.2478 30.9953 57.4997 31.6266C57.6887 32.0053 58.1295 32.9523 58.6963 33.5204C59.704 33.331 60.1449 32.5104 59.9559 31.9422C59.704 31.1216 60.5857 31.8791 60.8376 31.311C61.0895 30.8059 59.9559 30.4272 61.0895 29.354C62.2232 28.4071 63.4198 28.6596 62.853 27.6496Z" fill="#252F4C"/>
<path d="M75.6377 45.1988L76.2045 45.0725C76.2045 45.0725 77.1492 44.315 77.2752 44.315C77.4011 44.2519 78.5347 43.4312 78.6607 43.6206C78.7867 43.81 78.6607 43.9994 78.4718 44.0625C78.2828 44.1887 77.9679 44.315 77.9679 44.315L77.716 44.6937C77.716 44.6937 77.9049 45.0094 77.9049 45.1356C77.9049 45.325 77.9049 45.5144 77.9049 45.5144C77.9049 45.5144 78.0309 45.83 77.842 46.0825C77.716 46.335 77.3381 46.5244 77.0862 46.5244C76.8343 46.5244 76.3305 46.4613 76.3305 46.4613L75.9526 46.5244L75.6377 45.1988Z" fill="#FF8E54"/>
<path d="M77.779 46.2088C77.842 46.0826 77.842 45.8932 77.842 45.767C77.716 45.8932 77.5271 46.0826 77.3381 46.1457C77.0862 46.2088 76.7713 46.3982 76.5194 46.0195C76.2675 45.6407 75.8266 45.3882 75.8266 45.3882L75.6377 45.3251L75.8896 46.5876L76.2675 46.5245C76.2675 46.5245 76.7713 46.5876 77.0232 46.5876C77.2752 46.6507 77.653 46.4614 77.779 46.2088Z" fill="#FF5F4D"/>
<path d="M75.0708 45.1357L75.7636 45.0094C75.7636 45.0094 76.2674 45.325 76.3304 46.0194C76.3304 46.6507 76.0785 46.9032 76.0785 46.9032L75.5117 46.9663L75.0708 45.1357Z" fill="#CBDCEB"/>
<path d="M65.183 38.0023C65.183 38.0023 65.8758 38.1286 66.4426 39.3911C67.0094 40.5905 68.8358 44.82 69.2767 45.1988C69.7175 45.5776 75.1338 44.9463 75.1338 44.9463C75.1338 44.9463 76.2044 45.6407 75.9525 46.5245C75.7006 47.3451 75.3227 47.2189 75.3227 47.2189C75.3227 47.2189 70.0324 48.4814 68.9618 48.5445C67.8911 48.6708 67.4503 48.2289 67.1984 48.0395C66.9465 47.8501 64.7422 43.6838 64.3013 42.9262C63.8605 42.2318 62.6639 39.7699 63.5456 38.8861C64.3643 37.9392 65.183 38.0023 65.183 38.0023Z" fill="#25437F"/>
<path d="M75.2597 47.1557C75.2597 47.1557 75.6376 47.2188 75.8895 46.4613C75.9525 46.2719 75.9525 46.0825 75.8895 45.9563C75.2597 46.1456 74.378 46.3982 73.4963 46.5875C71.8588 46.9663 69.6546 47.3451 68.206 46.84C66.6945 46.335 65.183 42.6737 64.6162 40.5905C64.3013 39.5805 64.4273 38.6967 64.5533 38.1285C64.2384 38.2548 63.9235 38.4442 63.5456 38.8229C62.6639 39.7067 63.8605 42.1687 64.3013 42.8631C64.7422 43.5574 66.9465 47.7869 67.1984 47.9763C67.4503 48.1657 67.8911 48.6076 68.9618 48.4813C69.9695 48.3551 75.2597 47.1557 75.2597 47.1557Z" fill="#252F4C"/>
<path d="M25.3804 24.4933L25.4434 62.4325L47.0452 49.9334L46.9193 11.9941L25.3804 24.4933Z" fill="#CBDCEB"/>
<path d="M28.2142 26.0714L27.4585 25.6295L27.5215 63.5687L28.2772 64.0106L28.2142 26.0714Z" fill="#BDC5CB"/>
<path d="M49.7531 13.5723L48.9974 13.1304L27.4585 25.6295L28.2142 26.0714L49.7531 13.5723Z" fill="white"/>
<path d="M28.2144 26.0714L28.2773 64.0106L49.8792 51.5115L49.7532 13.5723L28.2144 26.0714Z" fill="#EAF1F7"/>
<path d="M45.1559 21.7157V22.2838L32.623 29.5434V28.9753L45.1559 21.7157Z" fill="#A6D0F4"/>
<path d="M39.7397 27.0183V27.5865L32.623 31.6897V31.1847L39.7397 27.0183Z" fill="#A6D0F4"/>
<path d="M44.1482 35.1617V35.6668L32.623 42.3582V41.7901L44.1482 35.1617Z" fill="#A6D0F4"/>
<path d="M39.7397 35.288V35.793L32.623 39.9593V39.3912L39.7397 35.288Z" fill="#A6D0F4"/>
<path d="M41.6291 32.0054V32.5735L32.623 37.7499V37.2449L41.6291 32.0054Z" fill="#A6D0F4"/>
<path d="M35.898 31.6897V32.1947L32.623 34.0885V33.5835L35.898 31.6897Z" fill="#A6D0F4"/>
<path d="M36.0867 43.9994C38.102 42.8631 39.9914 43.1156 40.7471 44.9463C41.7548 47.2189 40.6212 51.0696 38.228 53.7209L37.6612 52.4584C39.2356 50.5646 39.9914 47.9764 39.2986 46.3982C38.7318 45.1357 37.4092 44.8832 36.0237 45.7038C35.7088 45.8932 35.3309 46.1457 35.016 46.4613L34.4492 45.1988C35.016 44.6938 35.5828 44.2519 36.0867 43.9994Z" fill="#4385FF"/>
<path d="M34.5121 45.1989L35.0789 46.4614C35.016 46.5245 34.89 46.6508 34.827 46.7139C33.0006 48.6077 32.1189 51.4484 32.8747 53.1528C32.8747 53.216 32.9377 53.2791 32.9377 53.3422C32.9377 53.3422 32.9377 53.4053 33.0006 53.4053C33.5045 54.3522 34.5121 54.5416 35.6458 54.0997C35.8347 54.0366 36.0236 53.9735 36.1496 53.8472C36.2126 53.8472 36.2755 53.7841 36.2755 53.7841C36.3385 53.721 36.4015 53.6579 36.4645 53.6579C36.5904 53.5316 36.7794 53.4685 36.9053 53.3422C36.9053 53.3422 36.9683 53.3422 36.9683 53.2791C37.0313 53.216 37.0943 53.216 37.1573 53.1528L37.2202 53.0897C37.2832 53.0266 37.3462 52.9635 37.4092 52.9003C37.5351 52.7741 37.5981 52.6478 37.7241 52.5216L38.2909 53.7841C38.1649 53.9104 38.1019 54.0366 37.976 54.0997C37.85 54.226 37.787 54.2891 37.6611 54.4154L37.5981 54.4785C37.5351 54.5416 37.4722 54.6048 37.3462 54.6679L37.2832 54.731C37.0943 54.9204 36.9053 55.0466 36.6534 55.236C36.6534 55.236 36.5904 55.236 36.5904 55.2991C36.5275 55.3623 36.4015 55.4254 36.3385 55.4885H36.2755C36.2126 55.5517 36.1496 55.5517 36.0866 55.6148C35.9607 55.6779 35.7717 55.8042 35.6458 55.8673C35.5198 55.9304 35.4568 55.9935 35.3309 55.9935C33.6304 56.6879 32.1189 56.246 31.4262 54.6679C30.4185 52.2691 31.6781 48.1658 34.2602 45.5145C34.3232 45.3251 34.4492 45.262 34.5121 45.1989Z" fill="#94C3FF"/>
<path d="M46.2896 45.5145V45.767C46.2896 45.9564 46.4785 46.0195 46.6044 45.9564L47.927 45.1989C47.99 45.1358 48.053 45.0726 48.053 45.0095V44.757C48.053 44.5676 47.864 44.5045 47.7381 44.5676L46.4155 45.3251C46.3525 45.3883 46.2896 45.4514 46.2896 45.5145Z" fill="#94C3FF"/>
<path d="M42.1958 49.239V49.4915C42.1958 49.6809 42.3847 49.744 42.5107 49.6809L47.9269 46.5877C47.9899 46.5246 48.0529 46.4614 48.0529 46.3983V46.1458C48.0529 45.9564 47.8639 45.8933 47.738 45.9564L42.3218 49.0496C42.1958 49.1128 42.1958 49.1759 42.1958 49.239Z" fill="#94C3FF"/>
<g opacity="0.53">
<path d="M44.3999 50.691V50.9435C44.3999 51.1328 44.5888 51.196 44.7148 51.1328L47.8638 49.3022C47.9267 49.239 47.9897 49.1759 47.9897 49.1128V48.8603C47.9897 48.6709 47.8008 48.6078 47.6748 48.6709L44.5259 50.5016C44.4629 50.5647 44.3999 50.6278 44.3999 50.691Z" fill="#94C3FF"/>
</g>
<path d="M43.0146 50.1228V50.3753C43.0146 50.5647 43.2036 50.6278 43.3295 50.5647L47.927 47.9134C47.99 47.8502 48.053 47.7871 48.053 47.724V47.4715C48.053 47.2821 47.864 47.219 47.7381 47.2821L43.1406 49.9334C43.0776 49.9965 43.0146 50.0597 43.0146 50.1228Z" fill="#94C3FF"/>
</g>
<defs>
<linearGradient id="paint0_linear_4_8053" x1="36.0315" y1="92.4974" x2="86.0088" y2="92.4974" gradientUnits="userSpaceOnUse">
<stop stop-color="white"/>
<stop offset="1" stop-color="#CBDCEB"/>
</linearGradient>
<linearGradient id="paint1_linear_4_8053" x1="55.1819" y1="58.0777" x2="76.8004" y2="117.515" gradientUnits="userSpaceOnUse">
<stop stop-color="white"/>
<stop offset="1" stop-color="#CBDCEB"/>
</linearGradient>
<clipPath id="clip0_4_8053">
<rect width="115" height="107" fill="white"/>
</clipPath>
</defs>
</svg>
