<svg width="57" height="40" viewBox="0 0 57 40" fill="none" xmlns="http://www.w3.org/2000/svg">
<path d="M53.4394 39.8602H3.56089C1.66274 39.8602 0.138672 38.3094 0.138672 36.4093V3.5766C0.138672 1.6765 1.66274 0.139648 3.56089 0.139648H53.4394C55.3237 0.139648 56.8616 1.6765 56.8616 3.59057V36.4233C56.8616 38.3094 55.3237 39.8602 53.4394 39.8602Z" fill="white"/>
<path d="M53.4392 40H3.56077C1.59334 40 0 38.3933 0 36.4094V3.57667C0 1.60671 1.59334 0 3.56077 0H53.4392C55.3928 0 57 1.60671 57 3.59064V36.4233C57 38.3933 55.4067 40 53.4392 40ZM3.56077 0.279427C1.74575 0.279427 0.277103 1.76039 0.277103 3.59064V36.4233C0.277103 38.2396 1.74575 39.7345 3.56077 39.7345H53.4392C55.2404 39.7345 56.7229 38.2536 56.7229 36.4233V3.59064C56.7229 1.77436 55.2543 0.279427 53.4392 0.279427H3.56077Z" fill="#3F4D79"/>
<path d="M56.8616 5.37891H0.138672V5.65833H56.8616V5.37891Z" fill="#3F4D79"/>
<path d="M5.43116 4.10749C6.04332 4.10749 6.53957 3.60707 6.53957 2.98978C6.53957 2.37249 6.04332 1.87207 5.43116 1.87207C4.81901 1.87207 4.32275 2.37249 4.32275 2.98978C4.32275 3.60707 4.81901 4.10749 5.43116 4.10749Z" fill="#FFB000"/>
<path d="M8.36866 4.10749C8.98082 4.10749 9.47707 3.60707 9.47707 2.98978C9.47707 2.37249 8.98082 1.87207 8.36866 1.87207C7.75651 1.87207 7.26025 2.37249 7.26025 2.98978C7.26025 3.60707 7.75651 4.10749 8.36866 4.10749Z" fill="#3F4D79"/>
<path d="M11.2363 4.10749C11.8485 4.10749 12.3448 3.60707 12.3448 2.98978C12.3448 2.37249 11.8485 1.87207 11.2363 1.87207C10.6242 1.87207 10.1279 2.37249 10.1279 2.98978C10.1279 3.60707 10.6242 4.10749 11.2363 4.10749Z" fill="#3F4D79"/>
<path d="M51.1672 19.3363H7.26025V22.0607H51.1672V19.3363Z" fill="#F0F0FF"/>
<path d="M32.435 19.3363H7.26025V22.0607H32.435V19.3363Z" fill="#FFB000"/>
<path d="M32.435 24.0587H7.26025V24.3381H32.435V24.0587Z" fill="#3F4D79"/>
<path d="M32.435 25.8052H7.26025V26.0846H32.435V25.8052Z" fill="#3F4D79"/>
<path d="M32.435 27.5515H7.26025V27.8309H32.435V27.5515Z" fill="#3F4D79"/>
<path d="M32.435 29.298H7.26025V29.5774H32.435V29.298Z" fill="#3F4D79"/>
<path d="M32.435 31.0444H7.26025V31.3239H32.435V31.0444Z" fill="#3F4D79"/>
</svg>
